<svg width="14" height="15" viewBox="0 0 14 15" fill="none" xmlns="http://www.w3.org/2000/svg">
<g clip-path="url(#clip0)">
<path d="M5.08768 14.3599C5.80066 14.7592 6.50289 14.9597 7.15704 14.9597C7.70464 14.9595 8.21853 14.8189 8.67592 14.5366L10.3618 13.4966C10.4226 13.4591 10.466 13.3992 10.4825 13.3296C10.499 13.2602 10.487 13.187 10.4495 13.1262L8.98819 10.7578C8.9507 10.6972 8.89062 10.6538 8.8212 10.6373C8.75125 10.621 8.67843 10.6328 8.6178 10.6703L6.9192 11.7187C6.65804 11.8798 6.32298 11.9313 6.00066 11.8604C5.67834 11.7894 5.40319 11.6025 5.2457 11.347L2.93707 7.6056C2.60327 7.06462 2.77152 6.35289 3.31213 6.01908C3.31213 6.01908 3.31231 6.01908 3.31231 6.0189L5.07531 4.9305C5.20176 4.85247 5.24086 4.68673 5.16284 4.56028L3.70136 2.19243C3.62333 2.06598 3.45742 2.02634 3.33114 2.10472L1.56958 3.19205C-0.393769 4.40387 -0.324892 7.58497 1.73747 10.928C2.68291 12.4609 3.87283 13.6797 5.08768 14.3599ZM1.85244 3.6498L3.38495 2.70399L4.56393 4.61391L3.02981 5.56098C3.02945 5.56116 3.02927 5.56134 3.02909 5.56151C2.23665 6.05137 1.98984 7.09476 2.47933 7.88793L4.78796 11.6292C5.02132 12.0078 5.4213 12.2835 5.88515 12.3858C6.34271 12.486 6.82288 12.4102 7.20188 12.1763L8.67143 11.2692L9.85023 13.1795L8.39323 14.0783C7.32923 14.7348 6.15133 14.3384 5.35063 13.8901C4.21434 13.2537 3.09366 12.1015 2.19539 10.6454C0.299484 7.57206 0.158502 4.69534 1.85244 3.6498Z" fill="white"/>
<path d="M6.89286 5.01811C7.7635 5.06959 8.53406 5.51694 9.00723 6.24571C9.45959 6.94023 9.56847 7.79133 9.3057 8.58091C9.2587 8.7219 9.33493 8.87436 9.47592 8.92099C9.50408 8.9305 9.5326 8.93481 9.56094 8.93481C9.67376 8.93481 9.77869 8.8636 9.81617 8.75077C10.1311 7.80478 10.0006 6.78453 9.45834 5.95226C8.89979 5.09165 7.95237 4.54153 6.9246 4.48072C6.77483 4.47445 6.64892 4.58512 6.64013 4.73345C6.63134 4.88197 6.74452 5.00932 6.89286 5.01811Z" fill="white"/>
<path d="M7.26964 3.02069C8.67946 3.18266 9.9309 3.95628 10.7031 5.1428C11.4512 6.29309 11.6632 7.70939 11.2846 9.02864C11.2435 9.1716 11.326 9.32048 11.4688 9.36137C11.4937 9.36855 11.5185 9.37195 11.5432 9.37195C11.66 9.37195 11.7678 9.29501 11.8015 9.17716C12.2232 7.70795 11.9872 6.1304 11.154 4.84935C10.2941 3.52795 8.9008 2.66662 7.33098 2.48617C7.18623 2.46913 7.05009 2.57514 7.03305 2.72276C7.01601 2.87038 7.12184 3.00365 7.26964 3.02069Z" fill="white"/>
<path d="M7.63696 1.26187C9.50937 1.52214 11.1743 2.58041 12.2049 4.16549C13.2146 5.71649 13.5173 7.63215 13.0359 9.42117C12.9972 9.56467 13.0824 9.71229 13.2259 9.75085C13.2492 9.75713 13.2728 9.76018 13.296 9.76018C13.4145 9.76018 13.5234 9.68126 13.5555 9.56108C14.0768 7.62462 13.7489 5.55094 12.656 3.87205C11.5403 2.15638 9.73807 1.01076 7.7114 0.728968C7.56486 0.709417 7.42818 0.811119 7.40791 0.958381C7.38728 1.10546 7.48988 1.24142 7.63696 1.26187Z" fill="white"/>
</g>
<defs>
<clipPath id="clip0">
<rect width="13.6554" height="14.2336" fill="white" transform="translate(0.142578 0.726562)"/>
</clipPath>
</defs>
</svg>
