<svg width="56" height="54" viewBox="0 0 56 54" fill="none" xmlns="http://www.w3.org/2000/svg">
<path d="M51.1068 27.3466C51.4802 27.3466 51.8268 27.5067 52.1202 27.8L55.5335 31.2133C56.1202 31.7733 56.1202 32.7066 55.5335 33.2667L52.8668 35.9333L47.4002 30.4667L50.0668 27.8C50.3602 27.5067 50.7335 27.3466 51.1068 27.3466ZM45.8535 32.0133L51.3202 37.48L35.1602 53.6667H29.6668V48.1733L45.8535 32.0133ZM21.6668 0.333313H32.3335C33.748 0.333313 35.1045 0.895216 36.1047 1.89541C37.1049 2.8956 37.6668 4.25216 37.6668 5.66665V11H48.3335C49.748 11 51.1045 11.5619 52.1047 12.5621C53.1049 13.5623 53.6668 14.9188 53.6668 16.3333L48.3335 21.6666V16.3333H5.66683V45.6667H24.3335V51H5.66683C4.25234 51 2.89579 50.4381 1.89559 49.4379C0.895399 48.4377 0.333496 47.0811 0.333496 45.6667V16.3333C0.333496 14.9188 0.895399 13.5623 1.89559 12.5621C2.89579 11.5619 4.25234 11 5.66683 11H16.3335V5.66665C16.3335 4.25216 16.8954 2.8956 17.8956 1.89541C18.8958 0.895216 20.2523 0.333313 21.6668 0.333313ZM32.3335 11V5.66665H21.6668V11H32.3335Z" fill="black"/>
</svg>
