<svg width="59" height="54" viewBox="0 0 59 54" fill="none" xmlns="http://www.w3.org/2000/svg">
<path d="M5.33333 0C2.37333 0 0 2.37333 0 5.33333V37.3333C0 40.2933 2.4 42.6667 5.33333 42.6667H26.6667V37.3333H5.33333V10.6667H48V21.3333H53.3333V10.6667C53.3333 7.70667 50.9333 5.33333 48 5.33333H26.6667L21.3333 0H5.33333ZM42.6667 26.6667C42.32 26.6667 42.0267 26.9067 41.9733 27.2267L41.4667 30.7467C40.6667 31.0933 39.8933 31.52 39.2 32L35.8933 30.6667C35.6 30.6667 35.2533 30.6667 35.0667 31.0133L32.4 35.6267C32.24 35.92 32.2933 36.2667 32.56 36.48L35.3867 38.6667C35.3333 39.12 35.3067 39.5467 35.3067 40C35.3067 40.4533 35.3333 40.88 35.3867 41.3333L32.56 43.52C32.32 43.7333 32.24 44.08 32.4 44.3733L35.0667 48.9867C35.2267 49.3333 35.5733 49.3333 35.8933 49.3333L39.2 48C39.8933 48.48 40.64 48.9333 41.4667 49.2533L41.9733 52.7733C42.0267 53.0933 42.2933 53.3333 42.6667 53.3333H48C48.2933 53.3333 48.5867 53.0933 48.64 52.7733L49.1467 49.2533C49.9467 48.9067 50.6667 48.48 51.3867 48L54.6667 49.3333C55.0133 49.3333 55.36 49.3333 55.5467 48.9867L58.2133 44.3733C58.3733 44.08 58.2933 43.7333 58.0533 43.52L55.2 41.3333C55.2533 40.88 55.3067 40.4533 55.3067 40C55.3067 39.5467 55.28 39.12 55.2 38.6667L58.0267 36.48C58.2667 36.2667 58.3467 35.92 58.1867 35.6267L55.52 31.0133C55.36 30.6667 55.0133 30.6667 54.6667 30.6667L51.3867 32C50.6667 31.52 49.9467 31.0667 49.12 30.7467L48.6133 27.2267C48.5867 26.9067 48.2933 26.6667 48 26.6667H42.6667ZM45.3333 36C47.5467 36 49.3333 37.7867 49.3333 40C49.3333 42.2133 47.5467 44 45.3333 44C43.0933 44 41.3333 42.2133 41.3333 40C41.3333 37.7867 43.12 36 45.3333 36Z" fill="black"/>
</svg>
