<svg width="54" height="64" viewBox="0 0 54 64" fill="none" xmlns="http://www.w3.org/2000/svg">
<path d="M48.3335 10.6667H5.66683C2.7335 10.6667 0.333496 13.0667 0.333496 16V48C0.333496 50.9333 2.7335 53.3333 5.66683 53.3333H48.3335C51.2668 53.3333 53.6668 50.9333 53.6668 48V16C53.6668 13.0667 51.2668 10.6667 48.3335 10.6667ZM48.3335 48H5.66683V16H48.3335V48ZM5.66683 0H48.3335V5.33333H5.66683V0ZM5.66683 58.6667H48.3335V64H5.66683V58.6667ZM27.0002 32C30.6802 32 33.6668 29.0133 33.6668 25.3333C33.6668 21.6533 30.6802 18.6667 27.0002 18.6667C23.3202 18.6667 20.3335 21.6533 20.3335 25.3333C20.3335 29.0133 23.3202 32 27.0002 32ZM27.0002 22.6667C28.4668 22.6667 29.6668 23.8667 29.6668 25.3333C29.6668 26.8 28.4668 28 27.0002 28C25.5335 28 24.3335 26.8 24.3335 25.3333C24.3335 23.8667 25.5335 22.6667 27.0002 22.6667ZM40.3335 42.6667C40.3335 37.0667 31.5068 34.6667 27.0002 34.6667C22.4935 34.6667 13.6668 37.0667 13.6668 42.6667V45.3333H40.3335V42.6667ZM18.4935 41.3333C20.1202 40 23.9068 38.6667 27.0002 38.6667C30.1202 38.6667 33.9068 40 35.5335 41.3333H18.4935Z" fill="black"/>
</svg>
