<svg width="72" height="72" viewBox="0 0 72 72" fill="none" xmlns="http://www.w3.org/2000/svg">
<path d="M18.7203 15.1201H14.4003C14.1139 15.1201 13.8392 15.2339 13.6366 15.4364C13.4341 15.639 13.3203 15.9137 13.3203 16.2001C13.3203 16.4866 13.4341 16.7613 13.6366 16.9638C13.8392 17.1663 14.1139 17.2801 14.4003 17.2801H18.7203C19.0067 17.2801 19.2814 17.1663 19.484 16.9638C19.6865 16.7613 19.8003 16.4866 19.8003 16.2001C19.8003 15.9137 19.6865 15.639 19.484 15.4364C19.2814 15.2339 19.0067 15.1201 18.7203 15.1201Z" fill="#F49422"/>
<path d="M28.8004 15.1201H24.4804C24.194 15.1201 23.9193 15.2339 23.7167 15.4364C23.5142 15.639 23.4004 15.9137 23.4004 16.2001C23.4004 16.4866 23.5142 16.7613 23.7167 16.9638C23.9193 17.1663 24.194 17.2801 24.4804 17.2801H28.8004C29.0868 17.2801 29.3615 17.1663 29.5641 16.9638C29.7666 16.7613 29.8804 16.4866 29.8804 16.2001C29.8804 15.9137 29.7666 15.639 29.5641 15.4364C29.3615 15.2339 29.0868 15.1201 28.8004 15.1201Z" fill="#F49422"/>
<path d="M62.2365 19.4401H60.4797V13.7233C60.4778 12.7576 60.0933 11.8321 59.4105 11.1492C58.7277 10.4664 57.8021 10.082 56.8365 10.0801H12.2828C11.3172 10.082 10.3916 10.4664 9.70882 11.1492C9.026 11.8321 8.64155 12.7576 8.63965 13.7233V42.4369C8.64155 43.4025 9.026 44.3281 9.70882 45.0109C10.3916 45.6937 11.3172 46.0782 12.2828 46.0801H15.1196V54.3169C15.1216 55.1871 15.4681 56.021 16.0834 56.6364C16.6987 57.2517 17.5327 57.5982 18.4028 57.6001H28.3965C29.2666 57.5982 30.1006 57.2517 30.7159 56.6364C31.3312 56.021 31.6777 55.1871 31.6797 54.3169V46.0801H36.7197V54.3169C36.7216 55.1871 37.0681 56.021 37.6834 56.6364C38.2987 57.2517 39.1327 57.5982 40.0029 57.6001H62.2365C63.1066 57.5982 63.9406 57.2517 64.5559 56.6364C65.1712 56.021 65.5178 55.1871 65.5197 54.3169V22.7233C65.5178 21.8531 65.1712 21.0191 64.5559 20.4038C63.9406 19.7885 63.1066 19.442 62.2365 19.4401ZM28.3965 55.4401H18.4028C18.1055 55.4382 17.8209 55.3193 17.6107 55.109C17.4005 54.8988 17.2815 54.6142 17.2796 54.3169V32.8033C17.2815 32.506 17.4005 32.2214 17.6107 32.0111C17.8209 31.8009 18.1055 31.682 18.4028 31.6801H28.3965C28.6938 31.682 28.9784 31.8009 29.1886 32.0111C29.3988 32.2214 29.5178 32.506 29.5197 32.8033V44.9929V54.3169C29.5178 54.6142 29.3988 54.8988 29.1886 55.109C28.9784 55.3193 28.6938 55.4382 28.3965 55.4401ZM31.6797 43.9201V32.8033C31.6777 31.9331 31.3312 31.0991 30.7159 30.4838C30.1006 29.8685 29.2666 29.522 28.3965 29.5201H18.4028C17.5327 29.522 16.6987 29.8685 16.0834 30.4838C15.4681 31.0991 15.1216 31.9331 15.1196 32.8033V43.9201H12.2828C11.8895 43.9201 11.5122 43.7638 11.2341 43.4857C10.9559 43.2075 10.7996 42.8302 10.7996 42.4369V13.7233C10.7996 13.3299 10.9559 12.9527 11.2341 12.6745C11.5122 12.3963 11.8895 12.2401 12.2828 12.2401H56.8365C57.2298 12.2401 57.6071 12.3963 57.8852 12.6745C58.1634 12.9527 58.3197 13.3299 58.3197 13.7233V19.4401H40.0029C39.1327 19.442 38.2987 19.7885 37.6834 20.4038C37.0681 21.0191 36.7216 21.8531 36.7197 22.7233V43.9201H31.6797ZM63.3597 54.3169C63.3578 54.6142 63.2388 54.8988 63.0286 55.109C62.8184 55.3193 62.5338 55.4382 62.2365 55.4401H40.0029C39.7055 55.4382 39.4209 55.3193 39.2107 55.109C39.0005 54.8988 38.8815 54.6142 38.8797 54.3169V22.7233C38.8815 22.426 39.0005 22.1414 39.2107 21.9311C39.4209 21.7209 39.7055 21.602 40.0029 21.6001H62.2365C62.5338 21.602 62.8184 21.7209 63.0286 21.9311C63.2388 22.1414 63.3578 22.426 63.3597 22.7233V54.3169Z" fill="#F49422"/>
<path d="M51.1241 52.9213C52.1182 52.9179 52.9213 52.1092 52.9178 51.1151C52.9143 50.121 52.1056 49.3179 51.1115 49.3214C50.1174 49.3248 49.3143 50.1335 49.3178 51.1276C49.3213 52.1217 50.13 52.9248 51.1241 52.9213Z" fill="#F49422"/>
</svg>
