<svg width="54" height="54" viewBox="0 0 54 54" fill="none" xmlns="http://www.w3.org/2000/svg">
<path d="M14.04 11.34H10.8C10.5852 11.34 10.3791 11.4253 10.2272 11.5772C10.0753 11.7291 9.98999 11.9351 9.98999 12.15C9.98999 12.3648 10.0753 12.5708 10.2272 12.7227C10.3791 12.8746 10.5852 12.96 10.8 12.96H14.04C14.2548 12.96 14.4608 12.8746 14.6127 12.7227C14.7647 12.5708 14.85 12.3648 14.85 12.15C14.85 11.9351 14.7647 11.7291 14.6127 11.5772C14.4608 11.4253 14.2548 11.34 14.04 11.34Z" fill="#F49422"/>
<path d="M21.6 11.34H18.36C18.1452 11.34 17.9392 11.4253 17.7873 11.5772C17.6354 11.7291 17.55 11.9351 17.55 12.15C17.55 12.3648 17.6354 12.5708 17.7873 12.7227C17.9392 12.8746 18.1452 12.96 18.36 12.96H21.6C21.8149 12.96 22.0209 12.8746 22.1728 12.7227C22.3247 12.5708 22.41 12.3648 22.41 12.15C22.41 11.9351 22.3247 11.7291 22.1728 11.5772C22.0209 11.4253 21.8149 11.34 21.6 11.34Z" fill="#F49422"/>
<path d="M46.6776 14.5801H45.36V10.2925C45.3586 9.56822 45.0702 8.87405 44.5581 8.36194C44.046 7.84982 43.3518 7.56149 42.6276 7.56006H9.21238C8.48814 7.56149 7.79397 7.84982 7.28186 8.36194C6.76974 8.87405 6.48141 9.56822 6.47998 10.2925V31.8277C6.48141 32.5519 6.76974 33.2461 7.28186 33.7582C7.79397 34.2703 8.48814 34.5586 9.21238 34.5601H11.34V40.7377C11.3414 41.3903 11.6013 42.0158 12.0628 42.4773C12.5243 42.9387 13.1497 43.1986 13.8024 43.2001H21.2976C21.9502 43.1986 22.5757 42.9387 23.0372 42.4773C23.4987 42.0158 23.7586 41.3903 23.76 40.7377V34.5601H27.54V40.7377C27.5414 41.3903 27.8013 42.0158 28.2628 42.4773C28.7243 42.9387 29.3498 43.1986 30.0024 43.2001H46.6776C47.3302 43.1986 47.9557 42.9387 48.4172 42.4773C48.8787 42.0158 49.1386 41.3903 49.14 40.7377V17.0425C49.1386 16.3898 48.8787 15.7643 48.4172 15.3029C47.9557 14.8414 47.3302 14.5815 46.6776 14.5801ZM21.2976 41.5801H13.8024C13.5794 41.5786 13.366 41.4894 13.2083 41.3318C13.0506 41.1741 12.9614 40.9606 12.96 40.7377V24.6025C12.9614 24.3795 13.0506 24.166 13.2083 24.0084C13.366 23.8507 13.5794 23.7615 13.8024 23.7601H21.2976C21.5206 23.7615 21.734 23.8507 21.8917 24.0084C22.0494 24.166 22.1386 24.3795 22.14 24.6025V33.7447V40.7377C22.1386 40.9606 22.0494 41.1741 21.8917 41.3318C21.734 41.4894 21.5206 41.5786 21.2976 41.5801ZM23.76 32.9401V24.6025C23.7586 23.9498 23.4987 23.3243 23.0372 22.8629C22.5757 22.4014 21.9502 22.1415 21.2976 22.1401H13.8024C13.1497 22.1415 12.5243 22.4014 12.0628 22.8629C11.6013 23.3243 11.3414 23.9498 11.34 24.6025V32.9401H9.21238C8.91735 32.9401 8.63441 32.8229 8.4258 32.6142C8.21718 32.4056 8.09998 32.1227 8.09998 31.8277V10.2925C8.09998 9.99743 8.21718 9.71449 8.4258 9.50587C8.63441 9.29726 8.91735 9.18006 9.21238 9.18006H42.6276C42.9226 9.18006 43.2056 9.29726 43.4142 9.50587C43.6228 9.71449 43.74 9.99743 43.74 10.2925V14.5801H30.0024C29.3498 14.5815 28.7243 14.8414 28.2628 15.3029C27.8013 15.7643 27.5414 16.3898 27.54 17.0425V32.9401H23.76ZM47.52 40.7377C47.5186 40.9606 47.4294 41.1741 47.2717 41.3318C47.114 41.4894 46.9006 41.5786 46.6776 41.5801H30.0024C29.7794 41.5786 29.566 41.4894 29.4083 41.3318C29.2506 41.1741 29.1614 40.9606 29.16 40.7377V17.0425C29.1614 16.8195 29.2506 16.606 29.4083 16.4484C29.566 16.2907 29.7794 16.2015 30.0024 16.2001H46.6776C46.9006 16.2015 47.114 16.2907 47.2717 16.4484C47.4294 16.606 47.5186 16.8195 47.52 17.0425V40.7377Z" fill="#F49422"/>
<path d="M38.3433 39.691C39.0889 39.6884 39.6912 39.0819 39.6886 38.3363C39.686 37.5907 39.0795 36.9884 38.3339 36.991C37.5883 36.9936 36.986 37.6001 36.9886 38.3457C36.9912 39.0913 37.5977 39.6936 38.3433 39.691Z" fill="#F49422"/>
</svg>
