<svg width="48" height="31" viewBox="0 0 48 31" fill="none" xmlns="http://www.w3.org/2000/svg">
<path d="M47.091 30.0166C47.1163 29.9385 47.1336 29.8562 47.1336 29.7696V1.18162C47.1336 1.09445 47.1163 1.01158 47.0905 0.933016C47.0867 0.922254 47.0846 0.911491 47.0803 0.900729C47.0459 0.808713 46.9953 0.725845 46.9318 0.653201C46.9275 0.648358 46.9269 0.642439 46.9226 0.637596C46.9199 0.634906 46.9167 0.633829 46.914 0.631138C46.8462 0.559032 46.766 0.500917 46.6762 0.45733C46.6692 0.454101 46.6638 0.449796 46.6568 0.446568C46.5718 0.408362 46.4792 0.386838 46.3818 0.380381C46.3722 0.379843 46.363 0.37769 46.3533 0.37769C46.3442 0.377152 46.3361 0.375 46.327 0.375H1.55475C1.5456 0.375 1.53699 0.377152 1.52785 0.37769C1.51924 0.378228 1.51063 0.379843 1.50202 0.380381C1.40355 0.386838 1.30938 0.408901 1.22328 0.447644C1.2179 0.449797 1.2136 0.453563 1.20822 0.455716C1.11674 0.499302 1.03549 0.558494 0.967151 0.631676C0.964461 0.634367 0.961232 0.634906 0.958541 0.637596C0.954237 0.641901 0.953699 0.64782 0.949394 0.652663C0.885899 0.725307 0.83478 0.808713 0.800342 0.900729C0.796037 0.911491 0.793885 0.922254 0.790118 0.933554C0.764289 1.01212 0.74707 1.09499 0.74707 1.18216V29.7706C0.74707 29.8589 0.764827 29.9428 0.791194 30.0225C0.794961 30.0332 0.797113 30.0435 0.80088 30.0542C0.835856 30.1468 0.887513 30.2302 0.951546 30.3028C0.955313 30.3071 0.956389 30.3125 0.960156 30.3168C0.963384 30.3206 0.967689 30.3227 0.971456 30.3265C0.997823 30.3539 1.02688 30.3782 1.05701 30.4018C1.07047 30.4121 1.0823 30.4244 1.09629 30.4341C1.13181 30.4589 1.17001 30.4788 1.20929 30.4971C1.21898 30.5014 1.22759 30.5084 1.23727 30.5121C1.33467 30.5536 1.44175 30.5773 1.55421 30.5773H46.3259C46.4383 30.5773 46.5454 30.5541 46.6428 30.5121C46.6579 30.5057 46.6719 30.496 46.6864 30.4885C46.7198 30.4718 46.7531 30.4546 46.7838 30.4336C46.7999 30.4223 46.8145 30.4078 46.8301 30.3954C46.8575 30.3733 46.8844 30.3513 46.9081 30.326C46.9124 30.3217 46.9172 30.3184 46.9216 30.3141C46.9259 30.3093 46.9269 30.3028 46.9312 30.298C46.9942 30.2259 47.0448 30.143 47.0792 30.0515C47.0846 30.0397 47.0873 30.0284 47.091 30.0166ZM2.36189 3.01226L15.9472 15.4215L2.36189 27.9298V3.01226ZM30.2062 14.8135C30.1502 14.85 30.091 14.8807 30.0442 14.9324C30.0264 14.9517 30.0205 14.977 30.0049 14.9975L23.9406 20.5367L3.63503 1.98878H44.2461L30.2062 14.8135ZM17.1439 16.5144L23.396 22.2253C23.5505 22.3663 23.7453 22.4368 23.9406 22.4368C24.1359 22.4368 24.3307 22.3663 24.4846 22.2253L30.6592 16.5854L44.2424 28.9629H3.62319L17.1439 16.5144ZM31.8565 15.492L45.5193 3.01226V27.9427L31.8565 15.492Z" fill="#F49422"/>
</svg>
