<svg width="22" height="14" viewBox="0 0 22 14" fill="none" xmlns="http://www.w3.org/2000/svg">
<path d="M21.2629 13.2296C21.2741 13.1949 21.2817 13.1583 21.2817 13.1198V0.41404C21.2817 0.375297 21.2741 0.338466 21.2626 0.303549C21.2609 0.298766 21.26 0.293983 21.2581 0.289199C21.2428 0.248303 21.2203 0.211473 21.1921 0.179187C21.1901 0.177034 21.1899 0.174404 21.188 0.172251C21.1868 0.171056 21.1854 0.170577 21.1842 0.169381C21.154 0.137334 21.1184 0.111505 21.0785 0.0921332C21.0754 0.0906982 21.073 0.0887848 21.0699 0.0873499C21.0321 0.0703697 20.9909 0.0608035 20.9476 0.0579336C20.9433 0.0576945 20.9393 0.0567376 20.935 0.0567376C20.9309 0.0564984 20.9273 0.055542 20.9233 0.055542H1.0245C1.02043 0.055542 1.0166 0.0564984 1.01254 0.0567376C1.00871 0.0569767 1.00489 0.0576945 1.00106 0.0579336C0.957294 0.0608035 0.915443 0.070609 0.877178 0.0878284C0.874786 0.088785 0.872873 0.090459 0.870482 0.0914156C0.829826 0.110787 0.793714 0.137095 0.763341 0.16962C0.762145 0.170816 0.76071 0.171056 0.759515 0.172251C0.757601 0.174165 0.757362 0.176795 0.755449 0.178948C0.727229 0.211234 0.704509 0.248303 0.689204 0.289199C0.68729 0.293983 0.686334 0.298766 0.68466 0.303788C0.67318 0.338705 0.665527 0.375536 0.665527 0.414279V13.1203C0.665527 13.1595 0.673419 13.1968 0.685138 13.2322C0.686812 13.237 0.687769 13.2415 0.689443 13.2463C0.704988 13.2874 0.727946 13.3245 0.756406 13.3568C0.75808 13.3587 0.758558 13.3611 0.760232 13.363C0.761667 13.3647 0.76358 13.3657 0.765254 13.3673C0.776973 13.3795 0.789887 13.3903 0.80328 13.4008C0.809258 13.4054 0.81452 13.4109 0.820738 13.4152C0.836522 13.4262 0.853502 13.435 0.87096 13.4431C0.875265 13.445 0.879091 13.4482 0.883396 13.4498C0.926683 13.4682 0.974274 13.4788 1.02426 13.4788H20.9228C20.9728 13.4788 21.0204 13.4685 21.0636 13.4498C21.0703 13.447 21.0766 13.4427 21.083 13.4393C21.0978 13.4319 21.1127 13.4242 21.1263 13.4149C21.1335 13.4099 21.1399 13.4034 21.1469 13.3979C21.1591 13.3881 21.171 13.3783 21.1815 13.3671C21.1835 13.3652 21.1856 13.3637 21.1875 13.3618C21.1894 13.3597 21.1899 13.3568 21.1918 13.3546C21.2198 13.3226 21.2423 13.2858 21.2576 13.2451C21.26 13.2399 21.2612 13.2348 21.2629 13.2296ZM1.38323 1.22766L7.42113 6.74288L1.38323 12.3021V1.22766ZM13.7585 6.47263C13.7336 6.4889 13.7073 6.50253 13.6865 6.52549C13.6786 6.5341 13.676 6.54534 13.669 6.55443L10.9738 9.01632L1.94906 0.772777H19.9984L13.7585 6.47263ZM7.95301 7.22861L10.7317 9.7668C10.8004 9.82946 10.8869 9.86079 10.9738 9.86079C11.0606 9.86079 11.1471 9.82946 11.2155 9.7668L13.9598 7.26018L19.9968 12.7613H1.9438L7.95301 7.22861ZM14.4919 6.77421L20.5643 1.22766V12.3079L14.4919 6.77421Z" fill="#F49422"/>
</svg>
