<svg width="71" height="68" viewBox="0 0 71 68" fill="none" xmlns="http://www.w3.org/2000/svg">
<path d="M36.3675 16.8135C26.803 16.8135 19.0216 24.6159 19.0216 34.207C19.0216 39.7287 21.6285 44.883 26.0271 48.1596V59.9082C26.0271 60.5022 26.5074 60.9844 27.1008 60.9844H28.8258C29.3498 64.6915 32.5272 67.5542 36.3675 67.5542C40.2092 67.5542 43.3888 64.6915 43.9134 60.9844H45.4338C46.0265 60.9844 46.5075 60.5022 46.5075 59.9082V48.3103C51.0285 45.0372 53.7184 39.8054 53.7184 34.207C53.7184 24.6159 45.9349 16.8135 36.3675 16.8135ZM36.3675 65.4025C33.714 65.4025 31.4958 63.5005 30.9961 60.9851H41.7439C41.2428 63.4998 39.0231 65.4025 36.3675 65.4025ZM44.3601 58.832H28.1745V48.6812H44.3601V58.832ZM39.4669 35.1541V46.5288H33.0627V35.1541H39.4669ZM45.3021 46.5288H41.6143V35.1541H45.0036C45.5963 35.1541 46.0773 34.672 46.0773 34.0779C46.0773 33.4831 45.5963 33.0017 45.0036 33.0017H27.5302C26.9368 33.0017 26.4565 33.4831 26.4565 34.0779C26.4565 34.672 26.9368 35.1541 27.5302 35.1541H30.9145V46.5288H27.4386C23.5053 43.6625 21.1682 39.0994 21.1682 34.207C21.1682 25.8033 27.9862 18.9659 36.3668 18.9659C44.7495 18.9659 51.5703 25.8026 51.5703 34.207C51.571 39.0916 49.234 43.6575 45.3021 46.5288Z" fill="#F49422"/>
<path d="M36.2645 13.1974C36.8571 13.1974 37.3382 12.716 37.3382 12.1212V1.2681C37.3382 0.673315 36.8571 0.191895 36.2645 0.191895C35.6711 0.191895 35.1908 0.673315 35.1908 1.2681V12.1212C35.1908 12.716 35.6711 13.1974 36.2645 13.1974Z" fill="#F49422"/>
<path d="M12.6181 33.0017H1.79021C1.19681 33.0017 0.716513 33.4831 0.716513 34.0779C0.716513 34.672 1.19681 35.1541 1.79021 35.1541H12.6181C13.2115 35.1541 13.6918 34.672 13.6918 34.0779C13.6918 33.4838 13.2115 33.0017 12.6181 33.0017Z" fill="#F49422"/>
<path d="M69.7904 33.0017H58.9675C58.3748 33.0017 57.8938 33.4831 57.8938 34.0779C57.8938 34.672 58.3748 35.1541 58.9675 35.1541H69.7904C70.383 35.1541 70.8641 34.672 70.8641 34.0779C70.8641 33.4838 70.383 33.0017 69.7904 33.0017Z" fill="#F49422"/>
<path d="M19.1742 18.6995C19.3775 18.8782 19.6294 18.965 19.8799 18.965C20.1791 18.965 20.4769 18.8402 20.6888 18.5962C21.0789 18.1485 21.0324 17.4691 20.5857 17.0781L12.4306 9.94213C11.9847 9.55111 11.3054 9.59775 10.916 10.0454C10.5259 10.4931 10.5724 11.1726 11.0191 11.5636L19.1742 18.6995Z" fill="#F49422"/>
<path d="M50.8081 18.965C51.0586 18.965 51.3099 18.8775 51.5132 18.6996L59.6725 11.5636C60.1192 11.1726 60.165 10.4932 59.7756 10.0448C59.3869 9.59706 58.7076 9.54971 58.261 9.94144L50.1016 17.0774C49.6549 17.4684 49.6091 18.1478 49.9985 18.5963C50.2104 18.8409 50.5082 18.965 50.8081 18.965Z" fill="#F49422"/>
</svg>
