<svg width="54" height="54" viewBox="0 0 54 54" fill="none" xmlns="http://www.w3.org/2000/svg">
<path d="M27.2756 14.11C20.1022 14.11 14.2661 19.9618 14.2661 27.1552C14.2661 31.2964 16.2213 35.1621 19.5203 37.6196V46.431C19.5203 46.8765 19.8805 47.2381 20.3255 47.2381H21.6193C22.0123 50.0185 24.3954 52.1655 27.2756 52.1655C30.1568 52.1655 32.5415 50.0185 32.935 47.2381H34.0753C34.5198 47.2381 34.8806 46.8765 34.8806 46.431V37.7326C38.2713 35.2778 40.2888 31.354 40.2888 27.1552C40.2888 19.9618 34.4511 14.11 27.2756 14.11ZM27.2756 50.5518C25.2855 50.5518 23.6218 49.1253 23.2471 47.2387H31.3078C30.932 49.1247 29.2673 50.5518 27.2756 50.5518ZM33.27 45.6238H21.1308V38.0108H33.27V45.6238ZM29.6001 27.8654V36.3965H24.7969V27.8654H29.6001ZM33.9765 36.3965H31.2107V27.8654H33.7526C34.1972 27.8654 34.5579 27.5038 34.5579 27.0583C34.5579 26.6122 34.1972 26.2511 33.7526 26.2511H20.6476C20.2026 26.2511 19.8424 26.6122 19.8424 27.0583C19.8424 27.5038 20.2026 27.8654 20.6476 27.8654H23.1859V36.3965H20.5789C17.6289 34.2468 15.8761 30.8245 15.8761 27.1552C15.8761 20.8524 20.9896 15.7243 27.275 15.7243C33.5621 15.7243 38.6777 20.8518 38.6777 27.1552C38.6782 30.8185 36.9254 34.243 33.9765 36.3965Z" fill="#F49422"/>
<path d="M27.1983 11.3979C27.6428 11.3979 28.0036 11.0369 28.0036 10.5908V2.45095C28.0036 2.00486 27.6428 1.6438 27.1983 1.6438C26.7533 1.6438 26.3931 2.00486 26.3931 2.45095V10.5908C26.3931 11.0369 26.7533 11.3979 27.1983 11.3979Z" fill="#F49422"/>
<path d="M9.46354 26.2512H1.34263C0.897579 26.2512 0.537354 26.6123 0.537354 27.0584C0.537354 27.5039 0.897579 27.8655 1.34263 27.8655H9.46354C9.90859 27.8655 10.2688 27.5039 10.2688 27.0584C10.2688 26.6128 9.90859 26.2512 9.46354 26.2512Z" fill="#F49422"/>
<path d="M52.3428 26.2512H44.2257C43.7812 26.2512 43.4204 26.6123 43.4204 27.0584C43.4204 27.5039 43.7812 27.8655 44.2257 27.8655H52.3428C52.7874 27.8655 53.1481 27.5039 53.1481 27.0584C53.1481 26.6128 52.7874 26.2512 52.3428 26.2512Z" fill="#F49422"/>
<path d="M14.3807 15.5247C14.5332 15.6586 14.7221 15.7238 14.91 15.7238C15.1344 15.7238 15.3578 15.6301 15.5167 15.4472C15.8093 15.1114 15.7744 14.6018 15.4394 14.3085L9.32306 8.9566C8.98861 8.66333 8.47914 8.69831 8.18709 9.03408C7.89451 9.36986 7.9294 9.87944 8.2644 10.1727L14.3807 15.5247Z" fill="#F49422"/>
<path d="M38.1061 15.7238C38.294 15.7238 38.4824 15.6581 38.6349 15.5247L44.7544 10.1727C45.0894 9.87946 45.1237 9.36988 44.8317 9.03357C44.5402 8.6978 44.0307 8.66228 43.6957 8.95608L37.5762 14.308C37.2412 14.6013 37.2068 15.1109 37.4989 15.4472C37.6578 15.6307 37.8811 15.7238 38.1061 15.7238Z" fill="#F49422"/>
</svg>
