<svg width="71" height="68" viewBox="0 0 71 68" fill="none" xmlns="http://www.w3.org/2000/svg">
<path d="M36.3674 16.8135C26.8029 16.8135 19.0215 24.6159 19.0215 34.207C19.0215 39.7287 21.6284 44.883 26.027 48.1596V59.9082C26.027 60.5022 26.5073 60.9844 27.1007 60.9844H28.8258C29.3497 64.6915 32.5272 67.5542 36.3674 67.5542C40.2091 67.5542 43.3887 64.6915 43.9134 60.9844H45.4337C46.0264 60.9844 46.5074 60.5022 46.5074 59.9082V48.3103C51.0284 45.0372 53.7184 39.8054 53.7184 34.207C53.7184 24.6159 45.9348 16.8135 36.3674 16.8135ZM36.3674 65.4025C33.714 65.4025 31.4957 63.5005 30.9961 60.9851H41.7438C41.2427 63.4998 39.023 65.4025 36.3674 65.4025ZM44.36 58.832H28.1744V48.6812H44.36V58.832ZM39.4668 35.1541V46.5288H33.0626V35.1541H39.4668ZM45.302 46.5288H41.6142V35.1541H45.0035C45.5962 35.1541 46.0772 34.672 46.0772 34.0779C46.0772 33.4831 45.5962 33.0017 45.0035 33.0017H27.5302C26.9368 33.0017 26.4565 33.4831 26.4565 34.0779C26.4565 34.672 26.9368 35.1541 27.5302 35.1541H30.9145V46.5288H27.4386C23.5052 43.6625 21.1682 39.0994 21.1682 34.207C21.1682 25.8033 27.9861 18.9659 36.3667 18.9659C44.7494 18.9659 51.5703 25.8026 51.5703 34.207C51.571 39.0916 49.2339 43.6575 45.302 46.5288Z" fill="#F49422"/>
<path d="M36.2651 13.1974C36.8578 13.1974 37.3388 12.716 37.3388 12.1212V1.2681C37.3388 0.673315 36.8578 0.191895 36.2651 0.191895C35.6717 0.191895 35.1914 0.673315 35.1914 1.2681V12.1212C35.1914 12.716 35.6717 13.1974 36.2651 13.1974Z" fill="#F49422"/>
<path d="M12.6184 33.0015H1.79049C1.1971 33.0015 0.716797 33.4829 0.716797 34.0777C0.716797 34.6717 1.1971 35.1539 1.79049 35.1539H12.6184C13.2118 35.1539 13.6921 34.6717 13.6921 34.0777C13.6921 33.4836 13.2118 33.0015 12.6184 33.0015Z" fill="#F49422"/>
<path d="M69.7911 33.0015H58.9682C58.3755 33.0015 57.8945 33.4829 57.8945 34.0777C57.8945 34.6717 58.3755 35.1539 58.9682 35.1539H69.7911C70.3838 35.1539 70.8648 34.6717 70.8648 34.0777C70.8648 33.4836 70.3838 33.0015 69.7911 33.0015Z" fill="#F49422"/>
<path d="M19.1743 18.6995C19.3776 18.8782 19.6295 18.965 19.8801 18.965C20.1793 18.965 20.477 18.8402 20.6889 18.5962C21.079 18.1485 21.0325 17.4691 20.5858 17.0781L12.4308 9.94213C11.9848 9.55111 11.3055 9.59775 10.9161 10.0454C10.526 10.4931 10.5725 11.1726 11.0192 11.5636L19.1743 18.6995Z" fill="#F49422"/>
<path d="M50.8084 18.965C51.0589 18.965 51.3102 18.8775 51.5135 18.6996L59.6729 11.5636C60.1195 11.1726 60.1653 10.4932 59.7759 10.0448C59.3873 9.59706 58.708 9.54971 58.2613 9.94144L50.1019 17.0774C49.6553 17.4684 49.6094 18.1478 49.9988 18.5963C50.2107 18.8409 50.5085 18.965 50.8084 18.965Z" fill="#F49422"/>
</svg>
