<svg width="72" height="72" viewBox="0 0 72 72" fill="none" xmlns="http://www.w3.org/2000/svg">
<path d="M45.1851 48.8396C44.591 48.8396 44.1089 49.3217 44.1089 49.9158V59.753H8.97955V13.4053H44.1082V21.5845C44.1082 22.1792 44.5903 22.6607 45.1844 22.6607C45.7785 22.6607 46.2606 22.1792 46.2606 21.5845V12.3291C46.2606 11.7344 45.7785 11.2529 45.1844 11.2529H7.90335C7.30857 11.2529 6.82715 11.7344 6.82715 12.3291V60.8285C6.82715 61.4226 7.30857 61.9047 7.90335 61.9047H45.1844C45.7785 61.9047 46.2606 61.4226 46.2606 60.8285V49.9158C46.2613 49.321 45.7792 48.8396 45.1851 48.8396Z" fill="#F49422"/>
<path d="M64.8091 14.1205C64.7517 13.8407 64.5853 13.5953 64.3471 13.4382L58.9438 9.87522C58.7056 9.71881 58.4165 9.66356 58.1338 9.71953C57.854 9.77692 57.6094 9.94338 57.4522 10.1823L53.4968 16.1925C53.4559 16.2549 53.4222 16.3202 53.3957 16.387L32.4715 48.137C32.4277 48.2038 32.3933 48.2755 32.3653 48.3494C32.244 48.4922 32.1551 48.6658 32.122 48.8638L30.7639 56.9805C30.6921 57.4081 30.8844 57.8358 31.2503 58.0682C31.4261 58.1787 31.6256 58.234 31.825 58.234C32.041 58.234 32.2569 58.1687 32.4413 58.0395L39.1805 53.3308C39.2451 53.2856 39.3025 53.2339 39.3541 53.178C39.4732 53.0998 39.5823 53.0036 39.6655 52.8773L60.6012 21.1115C60.6428 21.0476 60.6765 20.9802 60.7038 20.9106L64.652 14.9305C64.8099 14.6916 64.8665 14.401 64.8091 14.1205ZM34.0377 50.458L36.8667 52.322L33.3095 54.8073L34.0377 50.458ZM38.4609 50.7945L34.8606 48.4226L54.6118 18.4533L58.212 20.8259L38.4609 50.7945ZM59.3758 19.015L55.7769 16.6431L58.6583 12.2651L62.2628 14.6421L59.3758 19.015Z" fill="#F49422"/>
<path d="M33.5353 24.8502C34.1301 24.8502 34.6115 24.3687 34.6115 23.774C34.6115 23.1792 34.1301 22.6978 33.5353 22.6978H13.5137C12.9189 22.6978 12.4375 23.1792 12.4375 23.774C12.4375 24.3687 12.9189 24.8502 13.5137 24.8502H33.5353Z" fill="#F49422"/>
<path d="M13.7647 33.7154H33.7813C34.3761 33.7154 34.8575 33.234 34.8575 32.6392C34.8575 32.0444 34.3761 31.563 33.7813 31.563H13.7647C13.1699 31.563 12.6885 32.0444 12.6885 32.6392C12.6885 33.234 13.1699 33.7154 13.7647 33.7154Z" fill="#F49422"/>
</svg>
