<svg width="59" height="53" viewBox="0 0 59 53" fill="none" xmlns="http://www.w3.org/2000/svg">
<path d="M39.1848 39.8394C38.5907 39.8394 38.1086 40.3215 38.1086 40.9156V50.7528H2.9792V4.40509H38.1078V12.5842C38.1078 13.179 38.59 13.6604 39.184 13.6604C39.7781 13.6604 40.2602 13.179 40.2602 12.5842V3.32889C40.2602 2.73411 39.7781 2.25269 39.184 2.25269H1.903C1.30822 2.25269 0.826801 2.73411 0.826801 3.32889V51.8282C0.826801 52.4223 1.30822 52.9044 1.903 52.9044H39.184C39.7781 52.9044 40.2602 52.4223 40.2602 51.8282V40.9156C40.261 40.3208 39.7788 39.8394 39.1848 39.8394Z" fill="#F49422"/>
<path d="M58.8083 5.12047C58.7509 4.84066 58.5845 4.59528 58.3463 4.43816L52.943 0.875217C52.7048 0.718809 52.4157 0.663564 52.133 0.719526C51.8532 0.776924 51.6086 0.943376 51.4514 1.18229L47.496 7.19252C47.4551 7.25494 47.4214 7.32023 47.3949 7.38695L26.4707 39.137C26.4269 39.2038 26.3925 39.2755 26.3645 39.3494C26.2432 39.4922 26.1543 39.6658 26.1213 39.8638L24.7631 47.9805C24.6913 48.4081 24.8836 48.8358 25.2495 49.0682C25.4253 49.1787 25.6248 49.234 25.8242 49.234C26.0402 49.234 26.2561 49.1687 26.4405 49.0395L33.1797 44.3308C33.2443 44.2856 33.3017 44.2339 33.3533 44.178C33.4724 44.0998 33.5815 44.0036 33.6647 43.8773L54.6004 12.1115C54.642 12.0476 54.6757 11.9802 54.703 11.9106L58.6512 5.93049C58.8091 5.69157 58.8657 5.401 58.8083 5.12047ZM28.0369 41.458L30.8659 43.322L27.3087 45.8073L28.0369 41.458ZM32.4601 41.7945L28.8598 39.4226L48.611 9.45326L52.2112 11.8259L32.4601 41.7945ZM53.375 10.015L49.7761 7.64309L52.6575 3.2651L56.262 5.64207L53.375 10.015Z" fill="#F49422"/>
<path d="M27.5352 15.8502C28.1299 15.8502 28.6114 15.3687 28.6114 14.774C28.6114 14.1792 28.1299 13.6978 27.5352 13.6978H7.51351C6.91873 13.6978 6.43731 14.1792 6.43731 14.774C6.43731 15.3687 6.91873 15.8502 7.51351 15.8502H27.5352Z" fill="#F49422"/>
<path d="M7.76401 24.7151H27.7806C28.3754 24.7151 28.8568 24.2337 28.8568 23.6389C28.8568 23.0442 28.3754 22.5627 27.7806 22.5627H7.76401C7.16923 22.5627 6.68781 23.0442 6.68781 23.6389C6.68781 24.2337 7.16923 24.7151 7.76401 24.7151Z" fill="#F49422"/>
</svg>
