<svg width="54" height="54" viewBox="0 0 54 54" fill="none" xmlns="http://www.w3.org/2000/svg">
<path d="M33.8886 36.6295C33.443 36.6295 33.0814 36.9911 33.0814 37.4366V44.8145H6.73442V10.0538H33.0809V16.1881C33.0809 16.6342 33.4425 16.9953 33.888 16.9953C34.3336 16.9953 34.6952 16.6342 34.6952 16.1881V9.2466C34.6952 8.80052 34.3336 8.43945 33.888 8.43945H5.92727C5.48118 8.43945 5.12012 8.80052 5.12012 9.2466V45.6211C5.12012 46.0667 5.48118 46.4283 5.92727 46.4283H33.888C34.3336 46.4283 34.6952 46.0667 34.6952 45.6211V37.4366C34.6957 36.9905 34.3341 36.6295 33.8886 36.6295Z" fill="#F49422"/>
<path d="M48.6064 10.5902C48.5633 10.3804 48.4385 10.1963 48.2598 10.0785L44.2074 7.40629C44.0287 7.28898 43.8119 7.24755 43.5999 7.28952C43.39 7.33257 43.2065 7.45741 43.0887 7.6366L40.1221 12.1443C40.0915 12.1911 40.0662 12.24 40.0463 12.2901L24.3531 36.1027C24.3203 36.1527 24.2945 36.2065 24.2735 36.2619C24.1825 36.369 24.1158 36.4992 24.091 36.6477L23.0724 42.7353C23.0186 43.056 23.1628 43.3767 23.4373 43.551C23.5691 43.6339 23.7187 43.6753 23.8683 43.6753C24.0302 43.6753 24.1922 43.6264 24.3305 43.5295L29.3849 39.998C29.4333 39.9641 29.4764 39.9253 29.5151 39.8833C29.6044 39.8247 29.6862 39.7526 29.7486 39.6579L45.4504 15.8335C45.4816 15.7856 45.5069 15.735 45.5274 15.6828L48.4885 11.1977C48.6069 11.0186 48.6494 10.8006 48.6064 10.5902ZM25.5278 37.8434L27.6495 39.2414L24.9816 41.1054L25.5278 37.8434ZM28.8452 38.0958L26.145 36.3168L40.9583 13.8398L43.6585 15.6193L28.8452 38.0958ZM44.5313 14.2612L41.8322 12.4822L43.9932 9.1987L46.6967 10.9814L44.5313 14.2612Z" fill="#F49422"/>
<path d="M25.1515 18.6375C25.5976 18.6375 25.9587 18.2764 25.9587 17.8303C25.9587 17.3843 25.5976 17.0232 25.1515 17.0232H10.1353C9.68919 17.0232 9.32812 17.3843 9.32812 17.8303C9.32812 18.2764 9.68919 18.6375 10.1353 18.6375H25.1515Z" fill="#F49422"/>
<path d="M10.323 25.2863H25.3355C25.7816 25.2863 26.1426 24.9252 26.1426 24.4791C26.1426 24.0331 25.7816 23.672 25.3355 23.672H10.323C9.87693 23.672 9.51587 24.0331 9.51587 24.4791C9.51587 24.9252 9.87693 25.2863 10.323 25.2863Z" fill="#F49422"/>
</svg>
