<svg width="10" height="16" viewBox="0 0 10 16" fill="none" xmlns="http://www.w3.org/2000/svg">
<g clip-path="url(#clip0)">
<path d="M6.31471 11.341L8.85966 7.24203C8.86812 7.22848 8.87528 7.21416 8.88104 7.19926C9.32027 6.47921 9.55381 5.65258 9.55629 4.80914C9.55878 3.96571 9.33012 3.13771 8.89515 2.41508C8.46018 1.69246 7.83552 1.10283 7.08903 0.710227C6.34253 0.317628 5.50273 0.137071 4.66084 0.188167C3.57212 0.260529 2.54353 0.713468 1.75507 1.46771C0.966616 2.22196 0.468525 3.22947 0.347972 4.31391C0.23999 5.3249 0.471341 6.3431 1.0056 7.20817C1.01117 7.22112 1.01772 7.23364 1.0252 7.24559L3.465 11.3286C1.50461 11.5763 0.310547 12.3373 0.310547 13.3478C0.310547 14.5454 2.34223 15.4864 4.94421 15.4864C7.54619 15.4864 9.57787 14.5472 9.57787 13.3478C9.56183 12.3658 8.29649 11.5923 6.31471 11.341ZM1.485 6.96579C0.996539 6.19315 0.783627 5.27807 0.880844 4.36916C0.987455 3.41069 1.42774 2.52024 2.12464 1.85364C2.82154 1.18704 3.73067 0.786749 4.69292 0.72282C5.44132 0.676873 6.1879 0.838078 6.85066 1.18873C7.51342 1.53938 8.06672 2.06591 8.44978 2.71048C8.83284 3.35505 9.03084 4.09272 9.02203 4.84248C9.01322 5.59223 8.79795 6.32505 8.39985 6.96044C8.39144 6.97402 8.38428 6.98834 8.37847 7.00322L4.87292 12.6438L1.50995 7.01926C1.50373 7.00053 1.49536 6.98259 1.485 6.96579ZM4.9353 14.9499C2.52401 14.9499 0.836289 14.1052 0.836289 13.346C0.836289 12.6331 2.0357 12.004 3.7555 11.8294L4.63055 13.2925C4.65401 13.3317 4.68713 13.3643 4.72675 13.3871C4.76638 13.4099 4.81118 13.4221 4.85688 13.4226C4.90281 13.4238 4.94826 13.413 4.98884 13.3915C5.02942 13.37 5.06377 13.3383 5.08857 13.2997L5.99391 11.8454C7.75471 12.0236 9.02362 12.6474 9.02362 13.3496C9.02718 14.1052 7.34659 14.9499 4.9353 14.9499Z" fill="white"/>
<path d="M6.70489 4.71328C6.70489 4.37984 6.60601 4.05388 6.42076 3.77663C6.2355 3.49938 5.9722 3.28328 5.66413 3.15568C5.35607 3.02807 5.01708 2.99469 4.69004 3.05974C4.363 3.12479 4.06259 3.28536 3.82681 3.52115C3.59103 3.75693 3.43046 4.05733 3.3654 4.38437C3.30035 4.71141 3.33374 5.0504 3.46134 5.35847C3.58895 5.66653 3.80504 5.92984 4.08229 6.11509C4.35954 6.30035 4.6855 6.39923 5.01895 6.39923C5.46594 6.39875 5.8945 6.22098 6.21057 5.9049C6.52664 5.58883 6.70442 5.16028 6.70489 4.71328ZM3.86766 4.71328C3.86766 4.48558 3.93518 4.26299 4.06169 4.07366C4.18819 3.88434 4.368 3.73677 4.57837 3.64963C4.78874 3.5625 5.02023 3.5397 5.24355 3.58412C5.46688 3.62854 5.67202 3.73819 5.83303 3.8992C5.99404 4.06021 6.10369 4.26535 6.14812 4.48868C6.19254 4.71201 6.16974 4.94349 6.0826 5.15386C5.99546 5.36423 5.8479 5.54404 5.65857 5.67054C5.46924 5.79705 5.24665 5.86457 5.01895 5.86457C4.71406 5.86363 4.42196 5.74197 4.20654 5.52622C3.99112 5.31046 3.86991 5.01817 3.86944 4.71328H3.86766Z" fill="white"/>
</g>
<defs>
<clipPath id="clip0">
<rect width="9.26733" height="15.3067" fill="white" transform="translate(0.310547 0.179688)"/>
</clipPath>
</defs>
</svg>
