<svg width="89" height="54" viewBox="0 0 89 54" fill="none" xmlns="http://www.w3.org/2000/svg">
<rect x="4.5" y="4.5" width="84" height="49" stroke="white"/>
<rect x="0.5" y="0.5" width="59" height="49" stroke="white"/>
<path d="M25.248 33.92C25.6747 33.344 26.016 32.6293 26.272 31.776C26.528 30.9227 26.656 29.888 26.656 28.672C26.656 27.6693 26.5387 26.6987 26.304 25.76C26.0907 24.8213 25.7387 23.9893 25.248 23.264C24.7573 22.5173 24.1173 21.9307 23.328 21.504C22.5387 21.056 21.5787 20.832 20.448 20.832C19.3173 20.832 18.3573 21.056 17.568 21.504C16.7787 21.9307 16.1387 22.5173 15.648 23.264C15.1573 23.9893 14.7947 24.8213 14.56 25.76C14.3467 26.6987 14.24 27.6693 14.24 28.672C14.24 29.632 14.3467 30.5707 14.56 31.488C14.7947 32.384 15.1573 33.1947 15.648 33.92C16.1387 34.6453 16.7787 35.232 17.568 35.68C18.3573 36.1067 19.3173 36.32 20.448 36.32C20.9813 36.32 21.3867 36.2987 21.664 36.256C21.9413 36.2133 22.208 36.128 22.464 36L20.32 34.048L22.656 31.552L25.248 33.92ZM25.984 39.2C24.4693 40.0747 22.624 40.512 20.448 40.512C18.6987 40.512 17.12 40.2133 15.712 39.616C14.3253 38.9973 13.152 38.1547 12.192 37.088C11.232 36.0213 10.496 34.7733 9.984 33.344C9.472 31.8933 9.216 30.336 9.216 28.672C9.216 26.9653 9.472 25.3867 9.984 23.936C10.496 22.464 11.232 21.184 12.192 20.096C13.152 19.008 14.3253 18.1547 15.712 17.536C17.12 16.9173 18.6987 16.608 20.448 16.608C22.2187 16.608 23.7973 16.9173 25.184 17.536C26.5707 18.1547 27.744 19.008 28.704 20.096C29.664 21.184 30.4 22.464 30.912 23.936C31.424 25.3867 31.68 26.9653 31.68 28.672C31.68 30.336 31.424 31.8827 30.912 33.312C30.4 34.7413 29.664 36 28.704 37.088L31.552 39.68L29.216 42.112L25.984 39.2ZM44.0743 31.168L47.0503 22.784H47.1143L49.9943 31.168H44.0743ZM44.5543 17.152L35.9143 40H40.9703L42.7623 34.912H51.3063L53.0343 40H58.2503L49.7063 17.152H44.5543ZM69.0205 28.032L61.0525 40H66.6845L71.7725 32.096L76.7645 40H82.7485L74.7805 28.064L82.1085 17.152H76.6045L71.9645 24.448L67.4845 17.152H61.6605L69.0205 28.032Z" fill="white"/>
<path d="M11 20L17 25" stroke="white" stroke-width="5"/>
</svg>
