<svg width="49" height="28" viewBox="0 0 49 28" fill="none" xmlns="http://www.w3.org/2000/svg">
<path fill-rule="evenodd" clip-rule="evenodd" d="M16.1354 15.8877C16.0074 16.3144 15.8368 16.6717 15.6234 16.9597L14.3274 15.7757L13.1594 17.0237L14.2314 17.9997C14.1034 18.0637 13.9701 18.1064 13.8314 18.1277C13.6928 18.149 13.4901 18.1597 13.2234 18.1597C12.6581 18.1597 12.1781 18.053 11.7834 17.8397C11.3888 17.6157 11.0688 17.3224 10.8234 16.9597C10.5781 16.597 10.3968 16.1917 10.2794 15.7437C10.1728 15.285 10.1194 14.8157 10.1194 14.3357C10.1194 14.0926 10.132 13.8533 10.157 13.6178L7.98424 11.9882C7.73303 12.7079 7.60742 13.4904 7.60742 14.3357C7.60742 15.1677 7.73542 15.9464 7.99142 16.6717C8.24742 17.3864 8.61542 18.0104 9.09542 18.5437C9.57542 19.077 10.1621 19.4984 10.8554 19.8077C11.5594 20.1064 12.3488 20.2557 13.2234 20.2557C14.3114 20.2557 15.2341 20.037 15.9914 19.5997L17.6074 21.0557L18.7754 19.8397L17.3514 18.5437C17.8314 17.9997 18.1994 17.3704 18.4554 16.6557C18.7114 15.941 18.8394 15.1677 18.8394 14.3357C18.8394 13.4824 18.7114 12.693 18.4554 11.9677C18.1994 11.2317 17.8314 10.5917 17.3514 10.0477C16.8714 9.50371 16.2848 9.07704 15.5914 8.76771C14.8981 8.45838 14.1088 8.30371 13.2234 8.30371C12.3488 8.30371 11.5594 8.45838 10.8554 8.76771C10.1621 9.07704 9.57542 9.50371 9.09542 10.0477C9.04702 10.1026 8.99975 10.1584 8.95362 10.2152L10.8297 11.6223C11.0742 11.2534 11.3921 10.9632 11.7834 10.7517C12.1781 10.5277 12.6581 10.4157 13.2234 10.4157C13.7888 10.4157 14.2688 10.5277 14.6634 10.7517C15.0581 10.965 15.3781 11.2584 15.6234 11.6317C15.8688 11.9944 16.0448 12.4104 16.1514 12.8797C16.2688 13.349 16.3274 13.8344 16.3274 14.3357C16.3274 14.9437 16.2634 15.461 16.1354 15.8877ZM26.5245 11.3917L25.0365 15.5837H27.9965L26.5565 11.3917H26.5245ZM20.9565 19.9997L25.2765 8.57571H27.8525L32.1245 19.9997H29.5165L28.6525 17.4557H24.3805L23.4845 19.9997H20.9565ZM33.5257 19.9997L37.5097 14.0157L33.8297 8.57571H36.7417L38.9817 12.2237L41.3017 8.57571H44.0537L40.3897 14.0317L44.3737 19.9997H41.3817L38.8857 16.0477L36.3417 19.9997H33.5257Z" fill="#120C04"/>
<rect x="0.5" y="0.5" width="48" height="27" stroke="#120C04"/>
<rect x="4.5" y="4.5" width="28" height="19" stroke="#120C04"/>
</svg>
