<svg width="75" height="40" viewBox="0 0 75 40" fill="none" xmlns="http://www.w3.org/2000/svg">
<path d="M20.928 37.816C20.096 37.816 19.2 37.592 18.24 37.144C17.28 36.7173 16.1493 36.0347 14.848 35.096C13.5467 34.1573 11.9573 32.9413 10.08 31.448C7.05067 31.256 4.736 30.1787 3.136 28.216C1.536 26.2533 0.736 23.5013 0.736 19.96C0.736 15.9707 1.71733 12.952 3.68 10.904C5.64267 8.83467 8.352 7.8 11.808 7.8C15.264 7.8 17.888 8.80267 19.68 10.808C21.4933 12.792 22.4 15.5653 22.4 19.128C22.4 21.9653 21.8347 24.376 20.704 26.36C19.5733 28.3227 17.9627 29.7307 15.872 30.584C17.1093 31.352 18.112 31.896 18.88 32.216C19.6693 32.536 20.384 32.696 21.024 32.696C21.5787 32.696 22.1227 32.5893 22.656 32.376C23.1893 32.184 23.7867 31.896 24.448 31.512L26.72 35.448C25.504 36.1947 24.448 36.7707 23.552 37.176C22.6773 37.6027 21.8027 37.816 20.928 37.816ZM7.776 19.768C7.776 21.432 7.89333 22.7653 8.128 23.768C8.36267 24.7493 8.74667 25.4533 9.28 25.88C9.83467 26.3067 10.5707 26.52 11.488 26.52C12.448 26.52 13.2053 26.296 13.76 25.848C14.336 25.4 14.7413 24.6533 14.976 23.608C15.232 22.5627 15.36 21.1547 15.36 19.384C15.36 17.7413 15.232 16.44 14.976 15.48C14.7413 14.4987 14.3467 13.8053 13.792 13.4C13.2373 12.9733 12.48 12.76 11.52 12.76C10.6027 12.76 9.86667 12.984 9.312 13.432C8.75733 13.88 8.36267 14.616 8.128 15.64C7.89333 16.6427 7.776 18.0187 7.776 19.768ZM34.5968 27.8V31H25.7008V27.8L26.9808 27.256L33.9888 8.344L40.7408 8.184L47.3968 27.288L48.5808 27.8V31H38.5648V27.8L40.0368 27.128L39.5248 25.24H33.5088L32.9648 27.064L34.5968 27.8ZM34.8848 20.76H38.3408L36.8048 14.456L34.8848 20.76Z" fill="#F49422"/>
<path d="M60.8935 27.8V31H52.2855V27.8L53.7575 27.096L59.6135 19.832L53.7575 12.056L52.6055 11.64V8.44L62.9415 8.28V11.48L61.5655 12.152L64.3175 15.864L67.0695 12.248L65.7255 11.64V8.44L74.2375 8.28V11.48L72.7975 12.344L67.3255 19.256L73.5015 27.32L74.5895 27.8V31H64.0615V27.8L65.7575 27.032L62.6855 23.096L59.5815 27.16L60.8935 27.8Z" fill="#4C4F54"/>
<g clip-path="url(#clip0)">
<path d="M52.9673 17.7652C52.9659 17.7665 52.9645 17.7665 52.9645 17.7691L52.9617 17.7716C52.9575 17.7755 52.956 17.7768 52.9575 17.7768L48.9101 21.6687L47.9568 22.5857C47.9551 22.5845 47.9532 22.5837 47.9511 22.5832L47.9343 22.5755L44.0361 20.9836L44.1783 20.9231L44.8354 20.6411L45.7516 20.2483C45.7532 20.247 45.7551 20.2461 45.7572 20.2456H45.7586L52.5952 17.3157C52.6605 17.2877 52.7344 17.281 52.8045 17.2968C52.8744 17.3127 52.9364 17.35 52.98 17.4027C53.0236 17.4553 53.0461 17.52 53.0438 17.586C53.0414 17.652 53.0144 17.7153 52.9673 17.7652Z" fill="url(#paint0_linear)"/>
<g style="mix-blend-mode:multiply" opacity="0.2">
<g style="mix-blend-mode:multiply" opacity="0.2">
<path d="M40.0519 19.7112H40.0541C40.0519 19.7132 40.0519 19.7152 40.0499 19.7174C40.0497 19.7163 40.0498 19.7152 40.0502 19.7141C40.0505 19.713 40.0511 19.712 40.0519 19.7112Z" fill="black"/>
</g>
</g>
<g style="mix-blend-mode:multiply" opacity="0.2">
<g style="mix-blend-mode:multiply" opacity="0.2">
<path d="M47.9574 22.5857C47.9574 22.5857 47.8292 22.5432 47.6069 22.466C47.384 22.3848 47.0665 22.2767 46.688 22.135C46.3094 21.9959 45.8689 21.8298 45.4004 21.6469C44.9319 21.464 44.4336 21.2631 43.9354 21.0622C43.6878 20.9591 43.4402 20.8574 43.1967 20.7556C42.9532 20.6565 42.7153 20.5517 42.4832 20.4544C42.0216 20.2572 41.5924 20.0691 41.2264 19.9032C41.0421 19.8219 40.8761 19.7445 40.7269 19.6752C40.6537 19.6412 40.5834 19.6081 40.5214 19.5812C40.4657 19.5572 40.404 19.5474 40.3427 19.5528C40.2539 19.5602 40.1707 19.5957 40.1075 19.6532C40.1019 19.658 40.0968 19.6632 40.092 19.6687C40.0877 19.6726 40.0835 19.6777 40.0796 19.6815C40.0755 19.685 40.0717 19.6888 40.0684 19.6929C40.1177 19.62 40.1945 19.5662 40.2842 19.5418C40.374 19.5173 40.4705 19.5239 40.5553 19.5602L44.0369 20.9833L44.1791 20.9228C44.6248 21.1069 45.0699 21.2911 45.4865 21.4701C45.948 21.6672 46.3772 21.8565 46.7444 22.0214C47.1117 22.1862 47.413 22.3291 47.6254 22.427C47.7844 22.5018 47.8914 22.5532 47.935 22.5752L47.9518 22.5829C47.9538 22.5835 47.9557 22.5845 47.9574 22.5857Z" fill="black"/>
</g>
</g>
<path d="M47.9569 22.5863L46.4217 24.0636C46.4206 24.0648 46.4197 24.066 46.419 24.0674C46.419 24.0674 46.4175 24.0662 46.4175 24.0674L45.1932 25.2458C45.1755 25.2631 45.1567 25.2794 45.137 25.2947C45.0599 25.3545 44.9703 25.3989 44.8735 25.4254C44.7768 25.4518 44.6752 25.4597 44.575 25.4484C44.4748 25.4372 44.3782 25.4071 44.2914 25.36C44.2045 25.313 44.1292 25.25 44.0703 25.175L41.6286 22.0712V22.0699C41.6257 22.0686 41.6257 22.0673 41.6257 22.0673L41.5963 22.0299L40.0764 20.0993C40.0324 20.0459 40.0062 19.982 40.001 19.9153C39.9957 19.8486 40.0117 19.7819 40.0468 19.7233C40.0481 19.7218 40.0491 19.72 40.0497 19.7182C40.0499 19.7182 40.0501 19.7182 40.0502 19.7181C40.0504 19.718 40.0506 19.7179 40.0507 19.7178C40.0508 19.7177 40.0509 19.7175 40.051 19.7173C40.051 19.7172 40.0511 19.717 40.051 19.7168V19.7156C40.0509 19.7149 40.051 19.7142 40.0512 19.7135C40.0515 19.7128 40.0519 19.7122 40.0524 19.7117H40.0539C40.0566 19.7065 40.0623 19.7014 40.0679 19.6937C40.1172 19.6208 40.194 19.5671 40.2838 19.5426C40.3735 19.5182 40.47 19.5247 40.5548 19.561L44.0365 20.9841L47.9346 22.576L47.9514 22.5837C47.9534 22.5843 47.9553 22.5852 47.9569 22.5863Z" fill="url(#paint1_linear)"/>
<g style="mix-blend-mode:multiply" opacity="0.2">
<g style="mix-blend-mode:multiply" opacity="0.2">
<path d="M48.9101 21.6677L47.9568 22.5846C47.9551 22.5835 47.9532 22.5826 47.9511 22.5821L44.0361 20.9825L44.1783 20.922L44.8354 20.64L48.9101 21.6677Z" fill="black"/>
</g>
</g>
<g style="mix-blend-mode:screen" opacity="0.5">
<g style="mix-blend-mode:screen" opacity="0.5">
<path d="M40.0517 19.7112H40.0537C40.0517 19.7148 40.0499 19.7168 40.0499 19.7186C40.0496 19.716 40.0502 19.7134 40.0517 19.7112Z" fill="#F49422"/>
</g>
</g>
<g style="mix-blend-mode:screen" opacity="0.5">
<g style="mix-blend-mode:screen" opacity="0.5">
<path d="M47.9574 22.5857C47.9574 22.5857 47.8292 22.5432 47.6069 22.466C47.384 22.3848 47.0665 22.2767 46.688 22.135C46.3094 21.9959 45.8689 21.8298 45.4004 21.6469C44.9319 21.464 44.4336 21.2631 43.9354 21.0622C43.6878 20.9591 43.4402 20.8574 43.1967 20.7556C42.9532 20.6565 42.7153 20.5517 42.4832 20.4544C42.0216 20.2572 41.5924 20.0691 41.2264 19.9032C41.0421 19.8219 40.8761 19.7445 40.7269 19.6752C40.6537 19.6412 40.5834 19.6081 40.5214 19.5812C40.4657 19.5572 40.404 19.5474 40.3427 19.5528C40.2539 19.5602 40.1707 19.5957 40.1075 19.6532C40.1019 19.658 40.0968 19.6632 40.092 19.6687C40.0875 19.6727 40.0833 19.677 40.0796 19.6815C40.0755 19.685 40.0717 19.6888 40.0684 19.6929C40.1177 19.62 40.1945 19.5662 40.2842 19.5418C40.374 19.5173 40.4705 19.5239 40.5553 19.5602L44.0369 20.9833L47.9351 22.5752L47.9519 22.5829C47.9539 22.5835 47.9558 22.5845 47.9574 22.5857Z" fill="#F49422"/>
</g>
</g>
<g style="mix-blend-mode:multiply" opacity="0.2">
<g style="mix-blend-mode:multiply" opacity="0.2">
<path d="M46.4178 24.0679L45.1935 25.2463C45.1758 25.2636 45.157 25.2799 45.1373 25.2952C45.0603 25.3549 44.9706 25.3994 44.8739 25.4259C44.7772 25.4523 44.6755 25.4602 44.5753 25.4489C44.4751 25.4377 44.3786 25.4076 44.2917 25.3605C44.2048 25.3135 44.1296 25.2505 44.0706 25.1755L41.6289 22.0717C41.6459 22.0884 41.7162 22.1643 41.827 22.2869C41.9508 22.4286 42.1338 22.6282 42.3435 22.8729C42.5532 23.1177 42.7966 23.4048 43.0513 23.7165C43.3075 24.0256 43.5734 24.3623 43.8408 24.6965L44.0378 24.9503L44.1349 25.0764L44.1602 25.1074C44.1667 25.1164 44.1737 25.125 44.1814 25.1332C44.1962 25.1516 44.2128 25.1688 44.2309 25.1847C44.2958 25.2447 44.3743 25.2909 44.4609 25.3201C44.5475 25.3492 44.64 25.3606 44.732 25.3534C44.8219 25.3466 44.9092 25.3225 44.9881 25.2825C45.0259 25.2635 45.0613 25.2407 45.0936 25.2146L45.1218 25.1927L45.133 25.1836L45.1454 25.1707L45.1973 25.1244C45.3353 24.9982 45.4676 24.881 45.5914 24.7731C45.8349 24.5567 46.046 24.3829 46.1895 24.2567C46.3182 24.1495 46.3996 24.0815 46.4178 24.0679Z" fill="black"/>
</g>
</g>
<g style="mix-blend-mode:screen" opacity="0.5">
<g style="mix-blend-mode:screen" opacity="0.5">
<path d="M53.0045 17.7034C53.0218 17.6678 53.0303 17.6291 53.0293 17.5901C53.0283 17.5512 53.0179 17.5129 52.999 17.478C52.9737 17.4261 52.9301 17.3834 52.8753 17.3567C52.8206 17.33 52.7576 17.3208 52.6964 17.3307C52.6194 17.354 52.5457 17.3856 52.4769 17.4248C52.3967 17.462 52.3122 17.502 52.2249 17.5432C51.873 17.7094 51.4608 17.8987 51.0174 18.0983C50.7946 18.1962 50.5658 18.3023 50.3307 18.4022C50.0956 18.5022 49.8593 18.6071 49.6215 18.7101C49.143 18.914 48.6645 19.1157 48.2127 19.2999C47.761 19.4841 47.3389 19.6527 46.9747 19.7931C46.6102 19.9361 46.3034 20.0456 46.0895 20.1267C45.9051 20.1947 45.7869 20.2349 45.7588 20.2452L52.5954 17.3153C52.6606 17.2875 52.7343 17.2811 52.8042 17.297C52.8741 17.3129 52.9358 17.3503 52.9793 17.4028C53.0227 17.4554 53.0452 17.52 53.0428 17.5858C53.0406 17.6517 53.0137 17.7148 52.9668 17.7648C52.9818 17.7457 52.9944 17.7251 53.0045 17.7034Z" fill="#F49422"/>
</g>
</g>
<g style="mix-blend-mode:screen" opacity="0.3">
<g style="mix-blend-mode:screen" opacity="0.3">
<path d="M52.6823 17.6673L52.1687 18.1606C51.7986 18.5161 51.429 18.8715 51.0598 19.2269L45.957 20.444C47.1532 19.9314 48.35 19.4189 49.5474 18.9063C50.5 18.4984 51.4533 18.0897 52.4073 17.6802C52.4987 17.6416 52.5902 17.6016 52.6817 17.563C52.7938 17.514 52.73 17.6209 52.6823 17.6673Z" fill="#F49422"/>
</g>
</g>
<g style="mix-blend-mode:screen" opacity="0.3">
<g style="mix-blend-mode:screen" opacity="0.3">
<path d="M47.4805 22.6716C47.2468 22.8945 47.0141 23.1181 46.7824 23.3426C46.7177 23.4044 46.6531 23.4672 46.5883 23.5293L40.4004 19.7919C40.4716 19.8035 40.5398 19.8271 40.6016 19.8614C41.6037 20.2709 42.6061 20.6805 43.6089 21.0901C44.8996 21.6179 46.1901 22.1451 47.4805 22.6716Z" fill="#F49422"/>
</g>
</g>
</g>
<defs>
<linearGradient id="paint0_linear" x1="41.595" y1="19.9371" x2="53.0439" y2="19.9371" gradientUnits="userSpaceOnUse">
<stop stop-color="#4C4F54"/>
<stop offset="1" stop-color="#4C4F54"/>
</linearGradient>
<linearGradient id="paint1_linear" x1="47.0418" y1="21.4301" x2="41.5711" y2="23.7595" gradientUnits="userSpaceOnUse">
<stop stop-color="#4C4F54"/>
<stop offset="1" stop-color="#4C4F54"/>
</linearGradient>
<clipPath id="clip0">
<rect width="13.0439" height="8.16553" fill="white" transform="translate(40 17.2885)"/>
</clipPath>
</defs>
</svg>
