<svg width="75" height="40" viewBox="0 0 75 40" fill="none" xmlns="http://www.w3.org/2000/svg">
<path d="M20.928 37.816C20.096 37.816 19.2 37.592 18.24 37.144C17.28 36.7173 16.1493 36.0347 14.848 35.096C13.5467 34.1573 11.9573 32.9413 10.08 31.448C7.05067 31.256 4.736 30.1787 3.136 28.216C1.536 26.2533 0.736 23.5013 0.736 19.96C0.736 15.9707 1.71733 12.952 3.68 10.904C5.64267 8.83467 8.352 7.8 11.808 7.8C15.264 7.8 17.888 8.80267 19.68 10.808C21.4933 12.792 22.4 15.5653 22.4 19.128C22.4 21.9653 21.8347 24.376 20.704 26.36C19.5733 28.3227 17.9627 29.7307 15.872 30.584C17.1093 31.352 18.112 31.896 18.88 32.216C19.6693 32.536 20.384 32.696 21.024 32.696C21.5787 32.696 22.1227 32.5893 22.656 32.376C23.1893 32.184 23.7867 31.896 24.448 31.512L26.72 35.448C25.504 36.1947 24.448 36.7707 23.552 37.176C22.6773 37.6027 21.8027 37.816 20.928 37.816ZM7.776 19.768C7.776 21.432 7.89333 22.7653 8.128 23.768C8.36267 24.7493 8.74667 25.4533 9.28 25.88C9.83467 26.3067 10.5707 26.52 11.488 26.52C12.448 26.52 13.2053 26.296 13.76 25.848C14.336 25.4 14.7413 24.6533 14.976 23.608C15.232 22.5627 15.36 21.1547 15.36 19.384C15.36 17.7413 15.232 16.44 14.976 15.48C14.7413 14.4987 14.3467 13.8053 13.792 13.4C13.2373 12.9733 12.48 12.76 11.52 12.76C10.6027 12.76 9.86667 12.984 9.312 13.432C8.75733 13.88 8.36267 14.616 8.128 15.64C7.89333 16.6427 7.776 18.0187 7.776 19.768ZM34.5968 27.8V31H25.7008V27.8L26.9808 27.256L33.9888 8.344L40.7408 8.184L47.3968 27.288L48.5808 27.8V31H38.5648V27.8L40.0368 27.128L39.5248 25.24H33.5088L32.9648 27.064L34.5968 27.8ZM34.8848 20.76H38.3408L36.8048 14.456L34.8848 20.76Z" fill="#F49422"/>
<path d="M60.056 27.8V31H51.448V27.8L52.92 27.096L58.776 19.832L52.92 12.056L51.768 11.64V8.44L62.104 8.28V11.48L60.728 12.152L63.48 15.864L66.232 12.248L64.888 11.64V8.44L73.4 8.28V11.48L71.96 12.344L66.488 19.256L72.664 27.32L73.752 27.8V31H63.224V27.8L64.92 27.032L61.848 23.096L58.744 27.16L60.056 27.8Z" fill="#120C04"/>
<path d="M52.967 16.473C52.9657 16.4742 52.9643 16.4742 52.9643 16.4768L52.9614 16.4793C52.9572 16.4832 52.9557 16.4844 52.9572 16.4844L48.9099 20.3455L47.9566 21.2551C47.9549 21.254 47.9529 21.2532 47.9509 21.2527L47.934 21.245L44.0359 19.6658L44.178 19.6057L44.8352 19.326L45.7513 18.9363C45.753 18.935 45.7549 18.9341 45.7569 18.9337H45.7584L52.595 16.0271C52.6602 15.9993 52.7341 15.9926 52.8042 16.0083C52.8742 16.024 52.9362 16.0611 52.9798 16.1133C53.0233 16.1655 53.0459 16.2297 53.0435 16.2952C53.0412 16.3607 53.0142 16.4234 52.967 16.473Z" fill="url(#paint0_linear)"/>
<g style="mix-blend-mode:multiply" opacity="0.2">
<g style="mix-blend-mode:multiply" opacity="0.2">
<path d="M40.0517 18.4033H40.0539C40.0517 18.4053 40.0517 18.4074 40.0496 18.4096C40.0495 18.4084 40.0496 18.4073 40.0499 18.4062C40.0503 18.4051 40.0509 18.4041 40.0517 18.4033Z" fill="black"/>
</g>
</g>
<g style="mix-blend-mode:multiply" opacity="0.2">
<g style="mix-blend-mode:multiply" opacity="0.2">
<path d="M47.9571 21.2549C47.9571 21.2549 47.829 21.2127 47.6066 21.1361C47.3838 21.0556 47.0662 20.9484 46.6877 20.8078C46.3091 20.6697 45.8686 20.5049 45.4002 20.3235C44.9317 20.1421 44.4334 19.9428 43.9352 19.7435C43.6876 19.6412 43.44 19.5403 43.1964 19.4394C42.9529 19.341 42.7151 19.237 42.4829 19.1405C42.0214 18.9449 41.5922 18.7583 41.2262 18.5937C41.0418 18.5131 40.8758 18.4363 40.7266 18.3675C40.6535 18.3338 40.5831 18.301 40.5211 18.2742C40.4654 18.2504 40.4037 18.2407 40.3425 18.2461C40.2537 18.2534 40.1705 18.2887 40.1072 18.3457C40.1017 18.3505 40.0965 18.3556 40.0918 18.3611C40.0874 18.3649 40.0832 18.37 40.0794 18.3738C40.0753 18.3772 40.0715 18.381 40.0681 18.385C40.1174 18.3127 40.1942 18.2594 40.284 18.2351C40.3738 18.2109 40.4702 18.2174 40.555 18.2534L44.0367 19.6652L44.1788 19.6052C44.6245 19.7878 45.0696 19.9706 45.4862 20.1482C45.9478 20.3436 46.377 20.5315 46.7442 20.695C47.1114 20.8586 47.4127 21.0003 47.6252 21.0974C47.7842 21.1716 47.8911 21.2226 47.9347 21.2444L47.9516 21.2521C47.9536 21.2527 47.9555 21.2536 47.9571 21.2549Z" fill="black"/>
</g>
</g>
<path d="M47.9569 21.2556L46.4217 22.7211C46.4206 22.7223 46.4197 22.7236 46.419 22.725C46.419 22.725 46.4175 22.7237 46.4175 22.725L45.1932 23.8939C45.1755 23.9111 45.1567 23.9273 45.137 23.9425C45.0599 24.0017 44.9703 24.0459 44.8735 24.0721C44.7768 24.0984 44.6752 24.1062 44.575 24.095C44.4748 24.0838 44.3782 24.054 44.2914 24.0073C44.2045 23.9606 44.1292 23.8981 44.0703 23.8237L41.6286 20.7445V20.7433C41.6257 20.742 41.6257 20.7407 41.6257 20.7407L41.5963 20.7036L40.0764 18.7884C40.0324 18.7354 40.0062 18.672 40.001 18.6058C39.9957 18.5397 40.0117 18.4735 40.0468 18.4153C40.0481 18.4138 40.0491 18.4121 40.0497 18.4103C40.0499 18.4103 40.0501 18.4103 40.0502 18.4102C40.0504 18.4101 40.0506 18.41 40.0507 18.4099C40.0508 18.4098 40.0509 18.4096 40.051 18.4094C40.051 18.4093 40.0511 18.4091 40.051 18.4089V18.4077C40.0509 18.407 40.051 18.4063 40.0512 18.4056C40.0515 18.405 40.0519 18.4044 40.0524 18.4039H40.0539C40.0566 18.3987 40.0623 18.3937 40.0679 18.386C40.1172 18.3137 40.194 18.2604 40.2838 18.2361C40.3735 18.2118 40.47 18.2184 40.5548 18.2544L44.0365 19.6662L47.9346 21.2454L47.9514 21.2531C47.9534 21.2536 47.9553 21.2545 47.9569 21.2556Z" fill="url(#paint1_linear)"/>
<g style="mix-blend-mode:multiply" opacity="0.2">
<g style="mix-blend-mode:multiply" opacity="0.2">
<path d="M48.9099 20.3447L47.9566 21.2544C47.9549 21.2532 47.9529 21.2524 47.9509 21.2519L44.0359 19.665L44.178 19.605L44.8352 19.3252L48.9099 20.3447Z" fill="black"/>
</g>
</g>
<g style="mix-blend-mode:screen" opacity="0.5">
<g style="mix-blend-mode:screen" opacity="0.5">
<path d="M40.0514 18.4033H40.0534C40.0514 18.407 40.0496 18.4089 40.0496 18.4108C40.0494 18.4081 40.05 18.4055 40.0514 18.4033Z" fill="#F49422"/>
</g>
</g>
<g style="mix-blend-mode:screen" opacity="0.5">
<g style="mix-blend-mode:screen" opacity="0.5">
<path d="M47.9571 21.2549C47.9571 21.2549 47.829 21.2127 47.6066 21.1361C47.3838 21.0556 47.0662 20.9484 46.6877 20.8078C46.3091 20.6697 45.8686 20.5049 45.4002 20.3235C44.9317 20.1421 44.4334 19.9428 43.9352 19.7435C43.6876 19.6412 43.44 19.5403 43.1964 19.4394C42.9529 19.341 42.7151 19.237 42.4829 19.1405C42.0214 18.9449 41.5922 18.7583 41.2262 18.5937C41.0418 18.5131 40.8758 18.4363 40.7266 18.3675C40.6535 18.3338 40.5831 18.301 40.5211 18.2742C40.4654 18.2504 40.4037 18.2407 40.3425 18.2461C40.2537 18.2534 40.1705 18.2887 40.1072 18.3457C40.1017 18.3505 40.0965 18.3556 40.0918 18.3611C40.0872 18.365 40.0831 18.3693 40.0794 18.3738C40.0753 18.3772 40.0715 18.381 40.0681 18.385C40.1174 18.3127 40.1942 18.2594 40.284 18.2351C40.3738 18.2109 40.4702 18.2174 40.555 18.2534L44.0367 19.6652L47.9348 21.2444L47.9517 21.2521C47.9537 21.2527 47.9555 21.2537 47.9571 21.2549Z" fill="#F49422"/>
</g>
</g>
<g style="mix-blend-mode:multiply" opacity="0.2">
<g style="mix-blend-mode:multiply" opacity="0.2">
<path d="M46.4176 22.7255L45.1933 23.8945C45.1756 23.9116 45.1568 23.9279 45.1371 23.9431C45.06 24.0023 44.9704 24.0465 44.8736 24.0727C44.7769 24.0989 44.6753 24.1067 44.5751 24.0956C44.4749 24.0844 44.3783 24.0545 44.2915 24.0079C44.2046 23.9612 44.1293 23.8987 44.0704 23.8243L41.6287 20.7451C41.6456 20.7618 41.7159 20.8371 41.8268 20.9587C41.9506 21.0992 42.1335 21.2972 42.3433 21.54C42.553 21.7828 42.7964 22.0676 43.0511 22.3769C43.3072 22.6835 43.5732 23.0176 43.8406 23.3491L44.0375 23.6009L44.1346 23.726L44.16 23.7567C44.1664 23.7657 44.1735 23.7742 44.1812 23.7823C44.196 23.8006 44.2126 23.8177 44.2307 23.8334C44.2956 23.8929 44.3741 23.9388 44.4607 23.9677C44.5473 23.9966 44.6398 24.0079 44.7317 24.0007C44.8216 23.994 44.9089 23.9701 44.9879 23.9305C45.0257 23.9116 45.061 23.889 45.0934 23.863L45.1216 23.8414L45.1327 23.8324L45.1451 23.8195L45.1971 23.7736C45.335 23.6484 45.4674 23.5321 45.5912 23.4251C45.8347 23.2104 46.0458 23.038 46.1893 22.9128C46.3179 22.8065 46.3994 22.739 46.4176 22.7255Z" fill="black"/>
</g>
</g>
<g style="mix-blend-mode:screen" opacity="0.5">
<g style="mix-blend-mode:screen" opacity="0.5">
<path d="M53.0041 16.4116C53.0213 16.3763 53.0298 16.3379 53.0288 16.2993C53.0278 16.2606 53.0174 16.2226 52.9985 16.188C52.9732 16.1365 52.9297 16.0942 52.8748 16.0677C52.8201 16.0412 52.7571 16.0321 52.6959 16.0419C52.6189 16.0651 52.5452 16.0964 52.4764 16.1352C52.3962 16.1722 52.3117 16.2119 52.2244 16.2527C51.8725 16.4176 51.4603 16.6054 51.0169 16.8035C50.7941 16.9006 50.5653 17.0058 50.3302 17.1049C50.0951 17.2041 49.8589 17.3081 49.621 17.4103C49.1425 17.6126 48.664 17.8127 48.2122 17.9955C47.7605 18.1782 47.3384 18.3455 46.9742 18.4848C46.6097 18.6266 46.3029 18.7352 46.089 18.8157C45.9046 18.8831 45.7864 18.923 45.7583 18.9332L52.5949 16.0266C52.6601 15.9991 52.7338 15.9927 52.8037 16.0085C52.8736 16.0243 52.9354 16.0613 52.9788 16.1135C53.0223 16.1656 53.0447 16.2297 53.0423 16.295C53.0401 16.3604 53.0132 16.423 52.9663 16.4725C52.9813 16.4536 52.9939 16.4331 53.0041 16.4116Z" fill="#F49422"/>
</g>
</g>
<g style="mix-blend-mode:screen" opacity="0.3">
<g style="mix-blend-mode:screen" opacity="0.3">
<path d="M52.6819 16.3757L52.1682 16.8651C51.7981 17.2178 51.4285 17.5704 51.0593 17.923L45.9565 19.1304C47.1528 18.6219 48.3495 18.1134 49.5469 17.6049C50.4995 17.2002 51.4528 16.7948 52.4068 16.3886C52.4982 16.3502 52.5897 16.3105 52.6812 16.2722C52.7933 16.2237 52.7295 16.3297 52.6819 16.3757Z" fill="#F49422"/>
</g>
</g>
<g style="mix-blend-mode:screen" opacity="0.3">
<g style="mix-blend-mode:screen" opacity="0.3">
<path d="M47.4805 21.3402C47.2468 21.5614 47.0141 21.7832 46.7824 22.0059C46.7177 22.0672 46.6531 22.1295 46.5883 22.1911L40.4004 18.4834C40.4716 18.4949 40.5398 18.5183 40.6016 18.5524C41.6037 18.9586 42.6061 19.3649 43.6089 19.7713C44.8996 20.295 46.1901 20.8179 47.4805 21.3402Z" fill="#F49422"/>
</g>
</g>
<defs>
<linearGradient id="paint0_linear" x1="41.5948" y1="18.6276" x2="53.0437" y2="18.6276" gradientUnits="userSpaceOnUse">
<stop stop-color="#120C04"/>
<stop offset="1" stop-color="#120C04"/>
</linearGradient>
<linearGradient id="paint1_linear" x1="47.0418" y1="20.1086" x2="41.5846" y2="22.4508" gradientUnits="userSpaceOnUse">
<stop stop-color="#120C04"/>
<stop offset="1" stop-color="#120C04"/>
</linearGradient>
</defs>
</svg>
