<svg width="89" height="50" viewBox="0 0 89 50" fill="none" xmlns="http://www.w3.org/2000/svg">
<rect x="4.5" y="0.5" width="84" height="49" stroke="white"/>
<rect x="0.5" y="7.5" width="60" height="35" stroke="white"/>
<path d="M25.248 30.92C25.6747 30.344 26.016 29.6293 26.272 28.776C26.528 27.9227 26.656 26.888 26.656 25.672C26.656 24.6693 26.5387 23.6987 26.304 22.76C26.0907 21.8213 25.7387 20.9893 25.248 20.264C24.7573 19.5173 24.1173 18.9307 23.328 18.504C22.5387 18.056 21.5787 17.832 20.448 17.832C19.3173 17.832 18.3573 18.056 17.568 18.504C16.7787 18.9307 16.1387 19.5173 15.648 20.264C15.1573 20.9893 14.7947 21.8213 14.56 22.76C14.3467 23.6987 14.24 24.6693 14.24 25.672C14.24 26.632 14.3467 27.5707 14.56 28.488C14.7947 29.384 15.1573 30.1947 15.648 30.92C16.1387 31.6453 16.7787 32.232 17.568 32.68C18.3573 33.1067 19.3173 33.32 20.448 33.32C20.9813 33.32 21.3867 33.2987 21.664 33.256C21.9413 33.2133 22.208 33.128 22.464 33L20.32 31.048L22.656 28.552L25.248 30.92ZM25.984 36.2C24.4693 37.0747 22.624 37.512 20.448 37.512C18.6987 37.512 17.12 37.2133 15.712 36.616C14.3253 35.9973 13.152 35.1547 12.192 34.088C11.232 33.0213 10.496 31.7733 9.984 30.344C9.472 28.8933 9.216 27.336 9.216 25.672C9.216 23.9653 9.472 22.3867 9.984 20.936C10.496 19.464 11.232 18.184 12.192 17.096C13.152 16.008 14.3253 15.1547 15.712 14.536C17.12 13.9173 18.6987 13.608 20.448 13.608C22.2187 13.608 23.7973 13.9173 25.184 14.536C26.5707 15.1547 27.744 16.008 28.704 17.096C29.664 18.184 30.4 19.464 30.912 20.936C31.424 22.3867 31.68 23.9653 31.68 25.672C31.68 27.336 31.424 28.8827 30.912 30.312C30.4 31.7413 29.664 33 28.704 34.088L31.552 36.68L29.216 39.112L25.984 36.2ZM44.0743 28.168L47.0503 19.784H47.1143L49.9943 28.168H44.0743ZM44.5543 14.152L35.9143 37H40.9703L42.7623 31.912H51.3063L53.0343 37H58.2503L49.7063 14.152H44.5543ZM69.0205 25.032L61.0525 37H66.6845L71.7725 29.096L76.7645 37H82.7485L74.7805 25.064L82.1085 14.152H76.6045L71.9645 21.448L67.4845 14.152H61.6605L69.0205 25.032Z" fill="white"/>
<path d="M12 17L17 21" stroke="#120C04" stroke-width="5"/>
</svg>
