<svg width="16" height="10" viewBox="0 0 16 10" fill="none" xmlns="http://www.w3.org/2000/svg">
<path d="M15.9853 9.81435C15.9941 9.78852 16 9.76126 16 9.73257V0.267073C16 0.23821 15.9941 0.210772 15.9852 0.18476C15.9839 0.181196 15.9831 0.177633 15.9816 0.174069C15.9697 0.143603 15.9523 0.116165 15.9304 0.0921126C15.9289 0.0905091 15.9287 0.0885493 15.9272 0.0869458C15.9263 0.086055 15.9252 0.0856985 15.9243 0.0848076C15.9009 0.0609332 15.8732 0.0416911 15.8422 0.0272596C15.8398 0.0261906 15.838 0.0247652 15.8356 0.0236962C15.8062 0.0110463 15.7743 0.00391972 15.7407 0.00178171C15.7374 0.00160355 15.7342 0.000890687 15.7309 0.000890687C15.7277 0.00071252 15.7249 0 15.7218 0H0.278592C0.275436 0 0.272467 0.00071252 0.269311 0.000890687C0.266342 0.00106885 0.263372 0.00160355 0.260402 0.00178171C0.226437 0.00391972 0.193956 0.0112246 0.16426 0.0240526C0.162404 0.0247653 0.160919 0.0260124 0.159063 0.026725C0.12751 0.0411566 0.0994838 0.0607549 0.0759121 0.0849857C0.074984 0.0858765 0.0738704 0.086055 0.0729423 0.0869458C0.0714575 0.0883712 0.071272 0.090331 0.0697871 0.0919345C0.0478858 0.115987 0.0302535 0.143603 0.0183748 0.174069C0.01689 0.177633 0.0161475 0.181196 0.0148483 0.184938C0.00593932 0.21095 0 0.238388 0 0.267251V9.73293C0 9.76215 0.00612489 9.78994 0.0152195 9.81631C0.0165187 9.81987 0.0172612 9.82326 0.0185604 9.82682C0.0306247 9.85747 0.0484426 9.88508 0.0705295 9.90913C0.0718287 9.91056 0.0722 9.91234 0.0734992 9.91377C0.0746128 9.91501 0.0760976 9.91573 0.0773969 9.91698C0.0864915 9.92606 0.0965141 9.93408 0.106908 9.94192C0.111548 9.9453 0.115631 9.9494 0.120457 9.95261C0.132707 9.9608 0.145885 9.96739 0.159434 9.97345C0.162775 9.97488 0.165744 9.97719 0.169085 9.97844C0.20268 9.99216 0.239615 10 0.278406 10H15.7214C15.7602 10 15.7971 9.99234 15.8307 9.97844C15.8359 9.9763 15.8408 9.9731 15.8458 9.9706C15.8573 9.96508 15.8688 9.95938 15.8794 9.95243C15.8849 9.94869 15.8899 9.94388 15.8953 9.93978C15.9048 9.93248 15.9141 9.92517 15.9222 9.9168C15.9237 9.91537 15.9254 9.9143 15.9269 9.91288C15.9284 9.91127 15.9287 9.90913 15.9302 9.90753C15.9519 9.88366 15.9694 9.85622 15.9813 9.82593C15.9831 9.82201 15.984 9.81827 15.9853 9.81435ZM0.556998 0.873198L5.24294 4.98192L0.556998 9.12342V0.873198ZM10.1613 4.78059C10.142 4.7927 10.1215 4.80286 10.1054 4.81996C10.0993 4.82638 10.0972 4.83475 10.0919 4.84152L8.00009 6.67557L0.996137 0.534324H15.004L10.1613 4.78059ZM5.65573 5.34377L7.81226 7.23466C7.86553 7.28134 7.93272 7.30468 8.00009 7.30468C8.06747 7.30468 8.13465 7.28134 8.18774 7.23466L10.3175 5.36729L15.0027 9.4655H0.992054L5.65573 5.34377ZM10.7305 5.00526L15.4432 0.873198V9.12769L10.7305 5.00526Z" fill="white"/>
</svg>
