<svg width="64" height="56" viewBox="0 0 64 56" fill="none" xmlns="http://www.w3.org/2000/svg">
<path d="M58.8055 0.297607H15.0367C12.4232 0.297607 10.3291 2.13522 10.2689 4.50871V13.6889C10.2689 14.2828 10.7496 14.7635 11.3435 14.7635C11.9375 14.7635 12.4182 14.2828 12.4182 13.6889V4.53594C12.4475 3.38394 13.6225 2.44686 15.0367 2.44686H58.8055C60.2512 2.44686 61.4269 3.40328 61.4269 4.57964V39.6454C61.4269 40.8225 60.2505 41.7796 58.8055 41.7796H15.0367C13.5931 41.7796 12.4182 40.8225 12.4182 39.6454V34.6255C12.4182 34.0323 11.9375 33.5509 11.3435 33.5509C10.7496 33.5509 10.2689 34.0323 10.2689 34.6255V39.6454C10.2689 42.0075 12.4074 43.9289 15.0367 43.9289H35.6824V53.1958H22.0411C21.4472 53.1958 20.9665 53.6772 20.9665 54.2704C20.9665 54.8636 21.4472 55.345 22.0411 55.345H51.3526C51.9458 55.345 52.4272 54.8636 52.4272 54.2704C52.4272 53.6772 51.9458 53.1958 51.3526 53.1958H37.8317V43.9282H58.8055C61.4362 43.9282 63.5761 42.0067 63.5761 39.6447V4.57964C63.5761 2.21832 61.4362 0.297607 58.8055 0.297607Z" fill="#F49422"/>
<path d="M29.7641 17.8319H52.7976C53.3908 17.8319 53.8722 17.3512 53.8722 16.7572C53.8722 16.1633 53.3908 15.6826 52.7976 15.6826H29.7641C29.1702 15.6826 28.6895 16.1633 28.6895 16.7572C28.6895 17.3512 29.1702 17.8319 29.7641 17.8319Z" fill="#F49422"/>
<path d="M29.7641 24.637H52.7976C53.3908 24.637 53.8722 24.1563 53.8722 23.5624C53.8722 22.9685 53.3908 22.4878 52.7976 22.4878H29.7641C29.1702 22.4878 28.6895 22.9685 28.6895 23.5624C28.6895 24.1563 29.1702 24.637 29.7641 24.637Z" fill="#F49422"/>
<path d="M29.7641 31.8184H52.7976C53.3908 31.8184 53.8722 31.337 53.8722 30.7438C53.8722 30.1506 53.3908 29.6692 52.7976 29.6692H29.7641C29.1702 29.6692 28.6895 30.1506 28.6895 30.7438C28.6895 31.337 29.1702 31.8184 29.7641 31.8184Z" fill="#F49422"/>
<path d="M11.1244 26.9075C11.4016 26.9075 11.6767 26.8008 11.8845 26.593L27.4107 11.0661C27.8305 10.6463 27.8305 9.96566 27.4107 9.54656C26.9909 9.12673 26.311 9.12673 25.8912 9.54656L11.0076 24.4309L1.76366 17.8498C1.27936 17.506 0.609513 17.6192 0.264916 18.102C-0.078965 18.5856 0.0335128 19.2569 0.517811 19.6008L10.5025 26.7083C10.6895 26.8423 10.908 26.9075 11.1244 26.9075Z" fill="#F49422"/>
</svg>
