<svg width="72" height="72" viewBox="0 0 72 72" fill="none" xmlns="http://www.w3.org/2000/svg">
<path d="M62.8051 8.29736H19.0363C16.4228 8.29736 14.3287 10.135 14.2686 12.5085V21.6886C14.2686 22.2826 14.7493 22.7633 15.3432 22.7633C15.9371 22.7633 16.4178 22.2826 16.4178 21.6886V12.5357C16.4472 11.3837 17.6221 10.4466 19.0363 10.4466H62.8051C64.2509 10.4466 65.4265 11.403 65.4265 12.5794V47.6452C65.4265 48.8223 64.2502 49.7794 62.8051 49.7794H19.0363C17.5927 49.7794 16.4178 48.8223 16.4178 47.6452V42.6252C16.4178 42.0321 15.9371 41.5506 15.3432 41.5506C14.7493 41.5506 14.2686 42.0321 14.2686 42.6252V47.6452C14.2686 50.0072 16.4071 51.9286 19.0363 51.9286H39.682V61.1955H26.0407C25.4468 61.1955 24.9661 61.6769 24.9661 62.2701C24.9661 62.8633 25.4468 63.3448 26.0407 63.3448H55.3522C55.9454 63.3448 56.4269 62.8633 56.4269 62.2701C56.4269 61.6769 55.9454 61.1955 55.3522 61.1955H41.8313V51.9279H62.8051C65.4358 51.9279 67.5758 50.0065 67.5758 47.6445V12.5794C67.5758 10.2181 65.4358 8.29736 62.8051 8.29736Z" fill="#F49422"/>
<path d="M33.7641 25.8319H56.7976C57.3908 25.8319 57.8722 25.3512 57.8722 24.7572C57.8722 24.1633 57.3908 23.6826 56.7976 23.6826H33.7641C33.1702 23.6826 32.6895 24.1633 32.6895 24.7572C32.6895 25.3512 33.1702 25.8319 33.7641 25.8319Z" fill="#F49422"/>
<path d="M33.7641 32.637H56.7976C57.3908 32.637 57.8722 32.1563 57.8722 31.5624C57.8722 30.9685 57.3908 30.4878 56.7976 30.4878H33.7641C33.1702 30.4878 32.6895 30.9685 32.6895 31.5624C32.6895 32.1563 33.1702 32.637 33.7641 32.637Z" fill="#F49422"/>
<path d="M33.7641 39.8182H56.7976C57.3908 39.8182 57.8722 39.3368 57.8722 38.7436C57.8722 38.1504 57.3908 37.6689 56.7976 37.6689H33.7641C33.1702 37.6689 32.6895 38.1504 32.6895 38.7436C32.6895 39.3368 33.1702 39.8182 33.7641 39.8182Z" fill="#F49422"/>
<path d="M15.124 34.9073C15.4013 34.9073 15.6764 34.8005 15.8841 34.5928L31.4103 19.0658C31.8302 18.646 31.8302 17.9654 31.4103 17.5463C30.9905 17.1265 30.3106 17.1265 29.8908 17.5463L15.0072 32.4306L5.7633 25.8496C5.279 25.5057 4.60915 25.6189 4.26455 26.1018C3.92067 26.5854 4.03315 27.2566 4.51745 27.6005L14.5022 34.7081C14.6891 34.8421 14.9077 34.9073 15.124 34.9073Z" fill="#F49422"/>
</svg>
