<svg width="54" height="54" viewBox="0 0 54 54" fill="none" xmlns="http://www.w3.org/2000/svg">
<path d="M47.1041 6.22314H14.2775C12.3174 6.22314 10.7468 7.60135 10.7017 9.38147V16.2666C10.7017 16.712 11.0622 17.0726 11.5076 17.0726C11.9531 17.0726 12.3136 16.712 12.3136 16.2666V9.40189C12.3356 8.53789 13.2168 7.83508 14.2775 7.83508H47.1041C48.1884 7.83508 49.0701 8.5524 49.0701 9.43467V35.734C49.0701 36.6168 48.1879 37.3347 47.1041 37.3347H14.2775C13.1948 37.3347 12.3136 36.6168 12.3136 35.734V31.9691C12.3136 31.5242 11.9531 31.1631 11.5076 31.1631C11.0622 31.1631 10.7017 31.5242 10.7017 31.9691V35.734C10.7017 37.5055 12.3055 38.9466 14.2775 38.9466H29.7618V45.8968H19.5308C19.0854 45.8968 18.7248 46.2578 18.7248 46.7027C18.7248 47.1476 19.0854 47.5087 19.5308 47.5087H41.5144C41.9593 47.5087 42.3204 47.1476 42.3204 46.7027C42.3204 46.2578 41.9593 45.8968 41.5144 45.8968H31.3737V38.9461H47.1041C49.0771 38.9461 50.6821 37.505 50.6821 35.7335V9.43467C50.6821 7.66368 49.0771 6.22314 47.1041 6.22314Z" fill="#F49422"/>
<path d="M25.3231 19.3738H42.5982C43.0431 19.3738 43.4042 19.0132 43.4042 18.5678C43.4042 18.1224 43.0431 17.7618 42.5982 17.7618H25.3231C24.8776 17.7618 24.5171 18.1224 24.5171 18.5678C24.5171 19.0132 24.8776 19.3738 25.3231 19.3738Z" fill="#F49422"/>
<path d="M25.3231 24.4778H42.5982C43.0431 24.4778 43.4042 24.1172 43.4042 23.6718C43.4042 23.2264 43.0431 22.8658 42.5982 22.8658H25.3231C24.8776 22.8658 24.5171 23.2264 24.5171 23.6718C24.5171 24.1172 24.8776 24.4778 25.3231 24.4778Z" fill="#F49422"/>
<path d="M25.3231 29.8639H42.5982C43.0431 29.8639 43.4042 29.5028 43.4042 29.0579C43.4042 28.613 43.0431 28.252 42.5982 28.252H25.3231C24.8776 28.252 24.5171 28.613 24.5171 29.0579C24.5171 29.5028 24.8776 29.8639 25.3231 29.8639Z" fill="#F49422"/>
<path d="M11.3433 26.1806C11.5512 26.1806 11.7575 26.1005 11.9133 25.9447L23.558 14.2995C23.8729 13.9846 23.8729 13.4742 23.558 13.1599C23.2431 12.845 22.7332 12.845 22.4184 13.1599L11.2557 24.3231L4.32272 19.3873C3.95949 19.1294 3.4571 19.2143 3.19866 19.5765C2.94075 19.9391 3.0251 20.4426 3.38833 20.7005L10.8769 26.0312C11.0171 26.1317 11.181 26.1806 11.3433 26.1806Z" fill="#F49422"/>
</svg>
