<svg width="72" height="72" viewBox="0 0 72 72" fill="none" xmlns="http://www.w3.org/2000/svg">
<path d="M35.9529 38.4424C26.4669 38.4424 18.749 47.2007 18.749 57.9667C18.749 58.6994 19.2722 59.294 19.9185 59.294H51.9866C52.6322 59.294 53.1561 58.6994 53.1561 57.9667C53.1561 47.2007 45.4383 38.4424 35.9529 38.4424ZM21.134 56.6394C21.7328 47.9555 28.1509 41.097 35.9529 41.097C43.755 41.097 50.1731 47.9555 50.7711 56.6394H21.134Z" fill="#F49422"/>
<path d="M35.6719 36.6895C41.241 36.6895 45.7716 31.5476 45.7716 25.2271C45.7716 18.9065 41.2403 13.7646 35.6719 13.7646C30.1029 13.7646 25.5723 18.9065 25.5723 25.2271C25.5723 31.5476 30.1029 36.6895 35.6719 36.6895ZM35.6719 16.4192C39.9507 16.4192 43.4327 20.3701 43.4327 25.2271C43.4327 30.0832 39.9507 34.0349 35.6719 34.0349C31.3924 34.0349 27.9112 30.084 27.9112 25.2271C27.9112 20.3701 31.3924 16.4192 35.6719 16.4192Z" fill="#F49422"/>
<path d="M13.0889 45.7659C15.0076 45.7659 16.8921 46.3464 18.5387 47.4454C19.0954 47.8188 19.8127 47.6055 20.1393 46.9746C20.4668 46.3428 20.2812 45.5288 19.7238 45.1571C17.7185 43.8183 15.424 43.1113 13.0889 43.1113C5.8716 43.1113 0 49.7752 0 57.9663C0 58.6989 0.52315 59.2936 1.16949 59.2936H15.9923C16.6387 59.2936 17.1618 58.6989 17.1618 57.9663C17.1618 57.2336 16.6387 56.639 15.9923 56.639H2.40212C2.98687 50.5335 7.55644 45.7659 13.0889 45.7659Z" fill="#F49422"/>
<path d="M12.8798 40.9944C17.1842 40.9944 20.6872 37.0196 20.6872 32.1334C20.6872 27.2472 17.185 23.2725 12.8798 23.2725C8.57449 23.2725 5.07227 27.2472 5.07227 32.1334C5.07227 37.0187 8.57449 40.9944 12.8798 40.9944ZM12.8798 25.927C15.8947 25.927 18.3483 28.7108 18.3483 32.1334C18.3483 35.5551 15.8955 38.3398 12.8798 38.3398C9.86404 38.3398 7.41124 35.556 7.41124 32.1334C7.41124 28.7108 9.86404 25.927 12.8798 25.927Z" fill="#F49422"/>
<path d="M58.9113 43.1113C56.577 43.1113 54.2825 43.8192 52.2765 45.1571C51.719 45.5288 51.5334 46.3419 51.8609 46.9737C52.1884 47.6073 52.9072 47.817 53.4615 47.4454C55.109 46.3464 56.9934 45.7659 58.9113 45.7659C64.4438 45.7659 69.0134 50.5335 69.5981 56.639H56.0102C55.3647 56.639 54.8408 57.2336 54.8408 57.9663C54.8408 58.6989 55.3647 59.2936 56.0102 59.2936H70.8308C71.4763 59.2936 72.0002 58.6989 72.0002 57.9663C72.0002 49.7752 66.1286 43.1113 58.9113 43.1113Z" fill="#F49422"/>
<path d="M59.1198 40.9944C63.4243 40.9944 66.9273 37.0196 66.9273 32.1334C66.9273 27.2472 63.4251 23.2725 59.1198 23.2725C54.8145 23.2725 51.3115 27.2472 51.3115 32.1334C51.3123 37.0187 54.8145 40.9944 59.1198 40.9944ZM59.1198 25.927C62.1347 25.927 64.5883 28.7108 64.5883 32.1334C64.5883 35.5551 62.1355 38.3398 59.1198 38.3398C56.1041 38.3398 53.6505 35.556 53.6505 32.1334C53.6513 28.7108 56.1041 25.927 59.1198 25.927Z" fill="#F49422"/>
</svg>
