<svg width="72" height="47" viewBox="0 0 72 47" fill="none" xmlns="http://www.w3.org/2000/svg">
<path d="M35.9527 25.4424C26.4666 25.4424 18.7488 34.2007 18.7488 44.9667C18.7488 45.6994 19.2719 46.294 19.9183 46.294H51.9864C52.6319 46.294 53.1559 45.6994 53.1559 44.9667C53.1559 34.2007 45.438 25.4424 35.9527 25.4424ZM21.1338 43.6394C21.7325 34.9555 28.1507 28.097 35.9527 28.097C43.7548 28.097 50.1729 34.9555 50.7709 43.6394H21.1338Z" fill="#F49422"/>
<path d="M35.6722 23.6895C41.2413 23.6895 45.7718 18.5476 45.7718 12.2271C45.7718 5.90654 41.2405 0.764648 35.6722 0.764648C30.1031 0.764648 25.5725 5.90654 25.5725 12.2271C25.5725 18.5476 30.1031 23.6895 35.6722 23.6895ZM35.6722 3.41922C39.9509 3.41922 43.4329 7.37009 43.4329 12.2271C43.4329 17.0832 39.9509 21.0349 35.6722 21.0349C31.3926 21.0349 27.9115 17.084 27.9115 12.2271C27.9115 7.37009 31.3926 3.41922 35.6722 3.41922Z" fill="#F49422"/>
<path d="M13.0889 32.7659C15.0076 32.7659 16.8921 33.3464 18.5387 34.4454C19.0954 34.8188 19.8127 34.6055 20.1393 33.9746C20.4668 33.3428 20.2812 32.5288 19.7238 32.1571C17.7185 30.8183 15.424 30.1113 13.0889 30.1113C5.8716 30.1113 0 36.7752 0 44.9663C0 45.6989 0.52315 46.2936 1.16949 46.2936H15.9923C16.6387 46.2936 17.1618 45.6989 17.1618 44.9663C17.1618 44.2336 16.6387 43.639 15.9923 43.639H2.40212C2.98687 37.5335 7.55644 32.7659 13.0889 32.7659Z" fill="#F49422"/>
<path d="M12.8796 27.9941C17.1841 27.9941 20.6871 24.0193 20.6871 19.1332C20.6871 14.247 17.1849 10.2722 12.8796 10.2722C8.57438 10.2722 5.07215 14.247 5.07215 19.1332C5.07215 24.0185 8.57438 27.9941 12.8796 27.9941ZM12.8796 12.9268C15.8946 12.9268 18.3482 15.7105 18.3482 19.1332C18.3482 22.5549 15.8954 25.3395 12.8796 25.3395C9.86393 25.3395 7.41113 22.5558 7.41113 19.1332C7.41113 15.7105 9.86393 12.9268 12.8796 12.9268Z" fill="#F49422"/>
<path d="M58.9111 30.1113C56.5768 30.1113 54.2823 30.8192 52.2762 32.1571C51.7187 32.5288 51.5332 33.3419 51.8606 33.9737C52.1881 34.6073 52.9069 34.817 53.4613 34.4454C55.1087 33.3464 56.9931 32.7659 58.9111 32.7659C64.4435 32.7659 69.0131 37.5335 69.5979 43.639H56.01C55.3644 43.639 54.8405 44.2336 54.8405 44.9663C54.8405 45.6989 55.3644 46.2936 56.01 46.2936H70.8305C71.4761 46.2936 72 45.6989 72 44.9663C72 36.7752 66.1284 30.1113 58.9111 30.1113Z" fill="#F49422"/>
<path d="M59.1196 27.9941C63.4241 27.9941 66.9271 24.0193 66.9271 19.1332C66.9271 14.247 63.4249 10.2722 59.1196 10.2722C54.8144 10.2722 51.3114 14.247 51.3114 19.1332C51.3121 24.0185 54.8144 27.9941 59.1196 27.9941ZM59.1196 12.9268C62.1346 12.9268 64.5881 15.7105 64.5881 19.1332C64.5881 22.5549 62.1353 25.3395 59.1196 25.3395C56.1039 25.3395 53.6503 22.5558 53.6503 19.1332C53.6511 15.7105 56.1039 12.9268 59.1196 12.9268Z" fill="#F49422"/>
</svg>
