<svg width="64" height="41" viewBox="0 0 64 41" fill="none" xmlns="http://www.w3.org/2000/svg">
<path d="M31.9581 21.9358C23.5261 21.9358 16.6658 29.7209 16.6658 39.2908C16.6658 39.942 17.1308 40.4706 17.7053 40.4706H46.2103C46.7841 40.4706 47.2498 39.942 47.2498 39.2908C47.2498 29.7209 40.3895 21.9358 31.9581 21.9358ZM18.7857 38.111C19.318 30.3919 25.023 24.2954 31.9581 24.2954C38.8933 24.2954 44.5983 30.3919 45.1299 38.111H18.7857Z" fill="#F49422"/>
<path d="M31.7085 20.3776C36.6588 20.3776 40.6859 15.8071 40.6859 10.1888C40.6859 4.57057 36.6581 0 31.7085 0C26.7581 0 22.731 4.57057 22.731 10.1888C22.731 15.8071 26.7581 20.3776 31.7085 20.3776ZM31.7085 2.35961C35.5118 2.35961 38.6069 5.87151 38.6069 10.1888C38.6069 14.5053 35.5118 18.018 31.7085 18.018C27.9044 18.018 24.81 14.5061 24.81 10.1888C24.81 5.87151 27.9044 2.35961 31.7085 2.35961Z" fill="#F49422"/>
<path d="M11.6346 28.4456C13.3401 28.4456 15.0152 28.9615 16.4788 29.9384C16.9737 30.2703 17.6112 30.0808 17.9016 29.52C18.1927 28.9584 18.0278 28.2348 17.5322 27.9044C15.7498 26.7144 13.7102 26.0859 11.6346 26.0859C5.2192 26.0859 0 32.0094 0 39.2903C0 39.9416 0.465022 40.4702 1.03954 40.4702H14.2154C14.7899 40.4702 15.255 39.9416 15.255 39.2903C15.255 38.6391 14.7899 38.1105 14.2154 38.1105H2.13522C2.65499 32.6834 6.71684 28.4456 11.6346 28.4456Z" fill="#F49422"/>
<path d="M11.4488 24.2042C15.275 24.2042 18.3888 20.6711 18.3888 16.3278C18.3888 11.9845 15.2757 8.45142 11.4488 8.45142C7.62187 8.45142 4.50879 11.9845 4.50879 16.3278C4.50879 20.6703 7.62187 24.2042 11.4488 24.2042ZM11.4488 10.811C14.1287 10.811 16.3097 13.2855 16.3097 16.3278C16.3097 19.3694 14.1294 21.8446 11.4488 21.8446C8.76814 21.8446 6.58788 19.3701 6.58788 16.3278C6.58788 13.2855 8.76814 10.811 11.4488 10.811Z" fill="#F49422"/>
<path d="M52.3651 26.0859C50.2902 26.0859 48.2506 26.7152 46.4674 27.9044C45.9719 28.2348 45.807 28.9576 46.0981 29.5192C46.3891 30.0823 47.0281 30.2687 47.5209 29.9384C48.9852 28.9615 50.6603 28.4456 52.3651 28.4456C57.2829 28.4456 61.3447 32.6834 61.8645 38.1105H49.7864C49.2125 38.1105 48.7468 38.6391 48.7468 39.2903C48.7468 39.9416 49.2125 40.4702 49.7864 40.4702H62.9602C63.534 40.4702 63.9997 39.9416 63.9997 39.2903C63.9997 32.0094 58.7805 26.0859 52.3651 26.0859Z" fill="#F49422"/>
<path d="M52.551 24.2042C56.3772 24.2042 59.491 20.6711 59.491 16.3278C59.491 11.9845 56.3779 8.45142 52.551 8.45142C48.7241 8.45142 45.6104 11.9845 45.6104 16.3278C45.611 20.6703 48.7241 24.2042 52.551 24.2042ZM52.551 10.811C55.231 10.811 57.4119 13.2855 57.4119 16.3278C57.4119 19.3694 55.2317 21.8446 52.551 21.8446C49.8704 21.8446 47.6894 19.3701 47.6894 16.3278C47.6901 13.2855 49.8704 10.811 52.551 10.811Z" fill="#F49422"/>
</svg>
