<svg width="28" height="28" viewBox="0 0 28 28" fill="none" xmlns="http://www.w3.org/2000/svg">
<path d="M14 0C6.26809 0 0 6.26809 0 14C0 21.7319 6.26809 28 14 28C21.7319 28 28 21.7319 28 14C28 6.26809 21.7319 0 14 0ZM13.5264 7.29498C13.6298 7.29299 13.738 7.30889 13.8308 7.30861C13.8686 7.30832 13.9035 7.30548 13.9338 7.29782C17.2771 7.41933 20.1946 10.4585 20.1338 13.8018C20.1338 14.1056 20.2553 14.5919 19.769 14.5919C19.2826 14.5919 19.4042 14.1056 19.4042 13.7411C19.3511 13.3005 19.2787 12.8891 19.1864 12.5058C19.0941 12.1225 18.9814 11.7671 18.8477 11.438C18.6467 10.9443 18.398 10.5099 18.0968 10.1298C17.1937 8.98905 15.8218 8.33521 13.8728 8.02746C13.569 7.9667 13.1435 8.02746 13.1435 7.66264C13.1435 7.34693 13.3254 7.29469 13.5264 7.29498ZM18.1277 13.9233C17.5806 13.9841 17.7021 13.4978 17.6414 13.194C17.2766 11.0664 16.5472 10.2763 14.3591 9.78995C14.0551 9.72919 13.569 9.78995 13.6298 9.30362C13.6905 8.81729 14.1769 8.99984 14.4807 9.06059C16.669 9.30362 18.4318 11.1271 18.4318 13.194C18.3707 13.437 18.5533 13.8626 18.1277 13.9233ZM16.7905 12.8292C16.7905 13.0722 16.7905 13.3763 16.4257 13.437C16.1827 13.437 16.0609 13.2547 16.0001 13.0114C15.9394 12.0998 15.453 11.6135 14.5414 11.4917C14.2984 11.4309 13.9943 11.3702 14.1158 11.0054C14.1766 10.7623 14.4196 10.7623 14.6629 10.7623C15.6963 10.7019 16.7905 11.796 16.7905 12.8292ZM20.1943 19.5157C19.8295 20.5492 18.553 21.5823 17.4588 21.5823C17.3373 21.5215 17.0333 21.5215 16.7295 21.4C11.9882 19.3335 8.46269 15.9902 6.51764 11.1274C5.84904 9.54693 6.5784 8.14897 8.21966 7.60188C8.52344 7.48037 8.82751 7.48037 9.13129 7.60188C9.86064 7.84491 11.6234 10.3373 11.6842 11.0667C11.7449 11.6745 11.3194 11.9783 10.9548 12.2216C10.2255 12.7079 10.2255 13.3765 10.5292 14.0451C11.2586 15.6256 12.4743 16.6588 13.994 17.3884C14.5411 17.6314 15.0882 17.6314 15.4528 17.0236C16.1213 15.9902 16.9722 15.9902 17.8841 16.6588C18.3097 16.9626 18.7957 17.2666 19.2213 17.6314C19.8297 18.1175 20.5591 18.5431 20.1943 19.5157Z" fill="white"/>
</svg>
