<svg width="28" height="28" viewBox="0 0 28 28" fill="none" xmlns="http://www.w3.org/2000/svg">
<path d="M14 0C6.26809 0 0 6.26809 0 14C0 21.7319 6.26809 28 14 28C21.7319 28 28 21.7319 28 14C28 6.26809 21.7319 0 14 0ZM22.375 8.1995C22.3812 8.1995 22.3866 8.20291 22.3928 8.2032L14.5806 16.0155C14.3202 16.2758 13.8592 16.2764 13.5988 16.0149L5.78346 8.1995H22.375ZM5.23864 8.72218C5.23864 8.71792 5.24091 8.71451 5.24091 8.71054L10.5514 14.021L5.23864 19.3338V8.72218ZM5.76132 19.9464C5.73718 19.9464 5.71646 19.9359 5.69318 19.9328L11.078 14.5479L13.0719 16.5418C13.343 16.8129 13.7045 16.962 14.0897 16.962C14.4753 16.962 14.8361 16.8124 15.1072 16.5418L17.0367 14.6124L22.3707 19.9464H5.76132ZM22.8976 19.4198L17.5636 14.0857L22.8976 8.75199V19.4198Z" fill="white"/>
</svg>
