<svg width="28" height="28" viewBox="0 0 28 28" fill="none" xmlns="http://www.w3.org/2000/svg">
<circle cx="14" cy="14" r="14" fill="#F49422"/>
<path d="M14 0C6.26809 0 0 6.26809 0 14C0 21.7319 6.26809 28 14 28C21.7319 28 28 21.7319 28 14C28 6.26809 21.7319 0 14 0ZM21.8753 6.50685L18.7407 21.228C18.6819 21.517 18.3526 21.6587 18.1024 21.5019L13.282 18.3049L10.7464 20.6644C10.5207 20.8575 10.1712 20.7635 10.073 20.483L8.42209 15.2762L3.98889 13.458C3.64877 13.303 3.65359 12.7613 4.00223 12.6259L21.308 6.02876C21.6198 5.90781 21.9417 6.17923 21.8753 6.50685Z" fill="white"/>
<path d="M10.6059 18.939L10.8875 16.2623L18.7058 8.62012L9.26758 14.8184L10.6059 18.939Z" fill="white"/>
</svg>
