<svg width="1360" height="964" viewBox="0 0 1360 964" fill="none" xmlns="http://www.w3.org/2000/svg">
<g filter="url(#filter0_d)">
<rect x="40" y="30" width="1280" height="884" fill="white"/>
</g>
<path d="M346.202 561C345.842 561 345.536 560.892 345.284 560.676C345.068 560.424 344.96 560.118 344.96 559.758V528.006H334.592C334.232 528.006 333.926 527.898 333.674 527.682C333.458 527.43 333.35 527.124 333.35 526.764V524.496C333.35 524.136 333.458 523.83 333.674 523.578C333.926 523.326 334.232 523.2 334.592 523.2H360.62C361.016 523.2 361.322 523.326 361.538 523.578C361.79 523.794 361.916 524.1 361.916 524.496V526.764C361.916 527.124 361.79 527.43 361.538 527.682C361.286 527.898 360.98 528.006 360.62 528.006H350.306V559.758C350.306 560.118 350.18 560.424 349.928 560.676C349.676 560.892 349.37 561 349.01 561H346.202ZM367.509 561C367.149 561 366.843 560.892 366.591 560.676C366.375 560.424 366.267 560.118 366.267 559.758V523.902C366.267 523.542 366.375 523.254 366.591 523.038C366.843 522.786 367.149 522.66 367.509 522.66H370.209C370.569 522.66 370.857 522.786 371.073 523.038C371.325 523.254 371.451 523.542 371.451 523.902V536.484C372.495 535.152 373.719 534.144 375.123 533.46C376.527 532.74 378.273 532.38 380.361 532.38C383.817 532.38 386.499 533.496 388.407 535.728C390.351 537.924 391.323 540.858 391.323 544.53V559.758C391.323 560.118 391.197 560.424 390.945 560.676C390.729 560.892 390.441 561 390.081 561H387.381C387.021 561 386.715 560.892 386.463 560.676C386.247 560.424 386.139 560.118 386.139 559.758V544.8C386.139 542.244 385.509 540.264 384.249 538.86C383.025 537.456 381.243 536.754 378.903 536.754C376.635 536.754 374.817 537.474 373.449 538.914C372.117 540.318 371.451 542.28 371.451 544.8V559.758C371.451 560.118 371.325 560.424 371.073 560.676C370.857 560.892 370.569 561 370.209 561H367.509ZM406.949 561.54C405.185 561.54 403.547 561.18 402.035 560.46C400.523 559.74 399.317 558.768 398.417 557.544C397.553 556.284 397.121 554.898 397.121 553.386C397.121 551.01 398.093 549.066 400.037 547.554C402.017 546.006 404.681 544.998 408.029 544.53L416.075 543.396V541.83C416.075 538.158 413.969 536.322 409.757 536.322C408.173 536.322 406.877 536.664 405.869 537.348C404.861 537.996 404.105 538.77 403.601 539.67C403.493 539.994 403.349 540.228 403.169 540.372C403.025 540.516 402.809 540.588 402.521 540.588H400.199C399.875 540.588 399.587 540.48 399.335 540.264C399.119 540.012 399.011 539.724 399.011 539.4C399.047 538.536 399.443 537.564 400.199 536.484C400.991 535.368 402.197 534.414 403.817 533.622C405.437 532.794 407.435 532.38 409.811 532.38C413.843 532.38 416.741 533.334 418.505 535.242C420.269 537.114 421.151 539.454 421.151 542.262V559.758C421.151 560.118 421.025 560.424 420.773 560.676C420.557 560.892 420.269 561 419.909 561H417.425C417.065 561 416.759 560.892 416.507 560.676C416.291 560.424 416.183 560.118 416.183 559.758V557.436C415.391 558.588 414.239 559.56 412.727 560.352C411.215 561.144 409.289 561.54 406.949 561.54ZM408.083 557.49C410.423 557.49 412.331 556.734 413.807 555.222C415.319 553.674 416.075 551.46 416.075 548.58V547.068L409.811 547.986C407.255 548.346 405.329 548.958 404.033 549.822C402.737 550.65 402.089 551.712 402.089 553.008C402.089 554.448 402.683 555.564 403.871 556.356C405.059 557.112 406.463 557.49 408.083 557.49ZM430.156 561C429.796 561 429.49 560.892 429.238 560.676C429.022 560.424 428.914 560.118 428.914 559.758V534.162C428.914 533.802 429.022 533.514 429.238 533.298C429.49 533.046 429.796 532.92 430.156 532.92H432.694C433.054 532.92 433.342 533.046 433.558 533.298C433.81 533.514 433.936 533.802 433.936 534.162V536.538C434.98 535.206 436.204 534.18 437.608 533.46C439.048 532.74 440.83 532.38 442.954 532.38C446.41 532.38 449.092 533.496 451 535.728C452.944 537.924 453.916 540.858 453.916 544.53V559.758C453.916 560.118 453.79 560.424 453.538 560.676C453.322 560.892 453.034 561 452.674 561H449.974C449.614 561 449.308 560.892 449.056 560.676C448.84 560.424 448.732 560.118 448.732 559.758V544.8C448.732 542.244 448.102 540.264 446.842 538.86C445.618 537.456 443.836 536.754 441.496 536.754C439.228 536.754 437.428 537.474 436.096 538.914C434.764 540.318 434.098 542.28 434.098 544.8V559.758C434.098 560.118 433.972 560.424 433.72 560.676C433.504 560.892 433.216 561 432.856 561H430.156ZM462.958 561C462.598 561 462.292 560.892 462.04 560.676C461.824 560.424 461.716 560.118 461.716 559.758V523.902C461.716 523.542 461.824 523.254 462.04 523.038C462.292 522.786 462.598 522.66 462.958 522.66H465.496C465.856 522.66 466.144 522.786 466.36 523.038C466.612 523.254 466.738 523.542 466.738 523.902V542.694L477.376 533.838C477.484 533.766 477.664 533.622 477.916 533.406C478.168 533.226 478.402 533.1 478.618 533.028C478.87 532.956 479.176 532.92 479.536 532.92H482.398C482.722 532.92 482.992 533.028 483.208 533.244C483.424 533.46 483.532 533.73 483.532 534.054C483.532 534.45 483.316 534.792 482.884 535.08L470.41 545.448L484.234 558.894C484.666 559.254 484.882 559.578 484.882 559.866C484.882 560.19 484.774 560.46 484.558 560.676C484.342 560.892 484.072 561 483.748 561H480.94C480.4 561 480.004 560.946 479.752 560.838C479.536 560.73 479.212 560.478 478.78 560.082L466.738 548.58V559.758C466.738 560.118 466.612 560.424 466.36 560.676C466.144 560.892 465.856 561 465.496 561H462.958ZM505.652 571.26C505.364 571.26 505.112 571.152 504.896 570.936C504.68 570.72 504.572 570.468 504.572 570.18C504.572 569.928 504.662 569.604 504.842 569.208L509 559.326L498.686 534.972C498.506 534.504 498.416 534.198 498.416 534.054C498.416 533.73 498.524 533.46 498.74 533.244C498.956 533.028 499.226 532.92 499.55 532.92H502.196C502.772 532.92 503.204 533.226 503.492 533.838L511.7 553.494L520.124 533.838C520.412 533.226 520.862 532.92 521.474 532.92H524.012C524.336 532.92 524.606 533.028 524.822 533.244C525.038 533.46 525.146 533.712 525.146 534C525.146 534.108 525.056 534.432 524.876 534.972L509.54 570.342C509.252 570.954 508.802 571.26 508.19 571.26H505.652ZM541.086 561.54C537.126 561.54 534.048 560.424 531.852 558.192C529.692 555.96 528.54 552.99 528.396 549.282L528.342 546.96L528.396 544.638C528.54 540.966 529.71 538.014 531.906 535.782C534.102 533.514 537.162 532.38 541.086 532.38C545.01 532.38 548.07 533.514 550.266 535.782C552.462 538.014 553.632 540.966 553.776 544.638C553.812 545.034 553.83 545.808 553.83 546.96C553.83 548.112 553.812 548.886 553.776 549.282C553.632 552.99 552.462 555.96 550.266 558.192C548.106 560.424 545.046 561.54 541.086 561.54ZM541.086 557.382C543.354 557.382 545.136 556.662 546.432 555.222C547.764 553.782 548.484 551.712 548.592 549.012C548.628 548.652 548.646 547.968 548.646 546.96C548.646 545.952 548.628 545.268 548.592 544.908C548.484 542.208 547.764 540.138 546.432 538.698C545.136 537.258 543.354 536.538 541.086 536.538C538.818 536.538 537.018 537.258 535.686 538.698C534.354 540.138 533.652 542.208 533.58 544.908L533.526 546.96L533.58 549.012C533.652 551.712 534.354 553.782 535.686 555.222C537.018 556.662 538.818 557.382 541.086 557.382ZM571.068 561.54C567.648 561.54 565.002 560.442 563.13 558.246C561.258 556.014 560.322 553.062 560.322 549.39V534.162C560.322 533.802 560.43 533.514 560.646 533.298C560.898 533.046 561.204 532.92 561.564 532.92H564.264C564.624 532.92 564.912 533.046 565.128 533.298C565.38 533.514 565.506 533.802 565.506 534.162V549.12C565.506 554.484 567.846 557.166 572.526 557.166C574.794 557.166 576.594 556.464 577.926 555.06C579.258 553.62 579.924 551.64 579.924 549.12V534.162C579.924 533.802 580.032 533.514 580.248 533.298C580.5 533.046 580.806 532.92 581.166 532.92H583.866C584.226 532.92 584.514 533.046 584.73 533.298C584.946 533.514 585.054 533.802 585.054 534.162V559.758C585.054 560.118 584.946 560.424 584.73 560.676C584.514 560.892 584.226 561 583.866 561H581.328C580.968 561 580.662 560.892 580.41 560.676C580.194 560.424 580.086 560.118 580.086 559.758V557.382C579.078 558.75 577.854 559.794 576.414 560.514C574.974 561.198 573.192 561.54 571.068 561.54ZM609.36 561C609 561 608.694 560.892 608.442 560.676C608.226 560.424 608.118 560.118 608.118 559.758V537.24H603.528C603.168 537.24 602.862 537.132 602.61 536.916C602.394 536.664 602.286 536.358 602.286 535.998V534.162C602.286 533.802 602.394 533.514 602.61 533.298C602.862 533.046 603.168 532.92 603.528 532.92H608.118V530.22C608.118 524.1 611.214 521.04 617.406 521.04H620.646C621.006 521.04 621.294 521.166 621.51 521.418C621.762 521.634 621.888 521.922 621.888 522.282V524.118C621.888 524.478 621.762 524.784 621.51 525.036C621.294 525.252 621.006 525.36 620.646 525.36H617.514C615.894 525.36 614.76 525.792 614.112 526.656C613.464 527.484 613.14 528.762 613.14 530.49V532.92H620.106C620.466 532.92 620.754 533.046 620.97 533.298C621.222 533.514 621.348 533.802 621.348 534.162V535.998C621.348 536.358 621.222 536.664 620.97 536.916C620.754 537.132 620.466 537.24 620.106 537.24H613.14V559.758C613.14 560.118 613.014 560.424 612.762 560.676C612.546 560.892 612.258 561 611.898 561H609.36ZM637.062 561.54C633.102 561.54 630.024 560.424 627.828 558.192C625.668 555.96 624.516 552.99 624.372 549.282L624.318 546.96L624.372 544.638C624.516 540.966 625.686 538.014 627.882 535.782C630.078 533.514 633.138 532.38 637.062 532.38C640.986 532.38 644.046 533.514 646.242 535.782C648.438 538.014 649.608 540.966 649.752 544.638C649.788 545.034 649.806 545.808 649.806 546.96C649.806 548.112 649.788 548.886 649.752 549.282C649.608 552.99 648.438 555.96 646.242 558.192C644.082 560.424 641.022 561.54 637.062 561.54ZM637.062 557.382C639.33 557.382 641.112 556.662 642.408 555.222C643.74 553.782 644.46 551.712 644.568 549.012C644.604 548.652 644.622 547.968 644.622 546.96C644.622 545.952 644.604 545.268 644.568 544.908C644.46 542.208 643.74 540.138 642.408 538.698C641.112 537.258 639.33 536.538 637.062 536.538C634.794 536.538 632.994 537.258 631.662 538.698C630.33 540.138 629.628 542.208 629.556 544.908L629.502 546.96L629.556 549.012C629.628 551.712 630.33 553.782 631.662 555.222C632.994 556.662 634.794 557.382 637.062 557.382ZM657.81 561C657.45 561 657.144 560.892 656.892 560.676C656.676 560.424 656.568 560.118 656.568 559.758V534.216C656.568 533.856 656.676 533.55 656.892 533.298C657.144 533.046 657.45 532.92 657.81 532.92H660.294C660.654 532.92 660.96 533.046 661.212 533.298C661.464 533.55 661.59 533.856 661.59 534.216V536.592C663.066 534.144 665.586 532.92 669.15 532.92H671.256C671.616 532.92 671.904 533.046 672.12 533.298C672.372 533.514 672.498 533.802 672.498 534.162V536.376C672.498 536.736 672.372 537.024 672.12 537.24C671.904 537.456 671.616 537.564 671.256 537.564H668.016C666.072 537.564 664.542 538.14 663.426 539.292C662.31 540.408 661.752 541.938 661.752 543.882V559.758C661.752 560.118 661.626 560.424 661.374 560.676C661.122 560.892 660.816 561 660.456 561H657.81ZM692.49 571.26C692.202 571.26 691.95 571.152 691.734 570.936C691.518 570.72 691.41 570.468 691.41 570.18C691.41 569.928 691.5 569.604 691.68 569.208L695.838 559.326L685.524 534.972C685.344 534.504 685.254 534.198 685.254 534.054C685.254 533.73 685.362 533.46 685.578 533.244C685.794 533.028 686.064 532.92 686.388 532.92H689.034C689.61 532.92 690.042 533.226 690.33 533.838L698.538 553.494L706.962 533.838C707.25 533.226 707.7 532.92 708.312 532.92H710.85C711.174 532.92 711.444 533.028 711.66 533.244C711.876 533.46 711.984 533.712 711.984 534C711.984 534.108 711.894 534.432 711.714 534.972L696.378 570.342C696.09 570.954 695.64 571.26 695.028 571.26H692.49ZM727.924 561.54C723.964 561.54 720.886 560.424 718.69 558.192C716.53 555.96 715.378 552.99 715.234 549.282L715.18 546.96L715.234 544.638C715.378 540.966 716.548 538.014 718.744 535.782C720.94 533.514 724 532.38 727.924 532.38C731.848 532.38 734.908 533.514 737.104 535.782C739.3 538.014 740.47 540.966 740.614 544.638C740.65 545.034 740.668 545.808 740.668 546.96C740.668 548.112 740.65 548.886 740.614 549.282C740.47 552.99 739.3 555.96 737.104 558.192C734.944 560.424 731.884 561.54 727.924 561.54ZM727.924 557.382C730.192 557.382 731.974 556.662 733.27 555.222C734.602 553.782 735.322 551.712 735.43 549.012C735.466 548.652 735.484 547.968 735.484 546.96C735.484 545.952 735.466 545.268 735.43 544.908C735.322 542.208 734.602 540.138 733.27 538.698C731.974 537.258 730.192 536.538 727.924 536.538C725.656 536.538 723.856 537.258 722.524 538.698C721.192 540.138 720.49 542.208 720.418 544.908L720.364 546.96L720.418 549.012C720.49 551.712 721.192 553.782 722.524 555.222C723.856 556.662 725.656 557.382 727.924 557.382ZM757.906 561.54C754.486 561.54 751.84 560.442 749.968 558.246C748.096 556.014 747.16 553.062 747.16 549.39V534.162C747.16 533.802 747.268 533.514 747.484 533.298C747.736 533.046 748.042 532.92 748.402 532.92H751.102C751.462 532.92 751.75 533.046 751.966 533.298C752.218 533.514 752.344 533.802 752.344 534.162V549.12C752.344 554.484 754.684 557.166 759.364 557.166C761.632 557.166 763.432 556.464 764.764 555.06C766.096 553.62 766.762 551.64 766.762 549.12V534.162C766.762 533.802 766.87 533.514 767.086 533.298C767.338 533.046 767.644 532.92 768.004 532.92H770.704C771.064 532.92 771.352 533.046 771.568 533.298C771.784 533.514 771.892 533.802 771.892 534.162V559.758C771.892 560.118 771.784 560.424 771.568 560.676C771.352 560.892 771.064 561 770.704 561H768.166C767.806 561 767.5 560.892 767.248 560.676C767.032 560.424 766.924 560.118 766.924 559.758V557.382C765.916 558.75 764.692 559.794 763.252 560.514C761.812 561.198 760.03 561.54 757.906 561.54ZM781.156 561C780.796 561 780.49 560.892 780.238 560.676C780.022 560.424 779.914 560.118 779.914 559.758V534.216C779.914 533.856 780.022 533.55 780.238 533.298C780.49 533.046 780.796 532.92 781.156 532.92H783.64C784 532.92 784.306 533.046 784.558 533.298C784.81 533.55 784.936 533.856 784.936 534.216V536.592C786.412 534.144 788.932 532.92 792.496 532.92H794.602C794.962 532.92 795.25 533.046 795.466 533.298C795.718 533.514 795.844 533.802 795.844 534.162V536.376C795.844 536.736 795.718 537.024 795.466 537.24C795.25 537.456 794.962 537.564 794.602 537.564H791.362C789.418 537.564 787.888 538.14 786.772 539.292C785.656 540.408 785.098 541.938 785.098 543.882V559.758C785.098 560.118 784.972 560.424 784.72 560.676C784.468 560.892 784.162 561 783.802 561H781.156ZM813.64 561C813.28 561 812.974 560.892 812.722 560.676C812.506 560.424 812.398 560.118 812.398 559.758V534.162C812.398 533.802 812.506 533.514 812.722 533.298C812.974 533.046 813.28 532.92 813.64 532.92H816.07C816.43 532.92 816.718 533.046 816.934 533.298C817.186 533.514 817.312 533.802 817.312 534.162V536.052C819.184 533.604 821.794 532.38 825.142 532.38C829.138 532.38 831.964 534.036 833.62 537.348C834.484 535.836 835.708 534.63 837.292 533.73C838.876 532.83 840.658 532.38 842.638 532.38C845.59 532.38 848.002 533.388 849.874 535.404C851.746 537.42 852.682 540.336 852.682 544.152V559.758C852.682 560.118 852.556 560.424 852.304 560.676C852.088 560.892 851.8 561 851.44 561H848.902C848.542 561 848.236 560.892 847.984 560.676C847.768 560.424 847.66 560.118 847.66 559.758V544.638C847.66 541.83 847.066 539.814 845.878 538.59C844.726 537.366 843.196 536.754 841.288 536.754C839.596 536.754 838.138 537.384 836.914 538.644C835.69 539.868 835.078 541.866 835.078 544.638V559.758C835.078 560.118 834.952 560.424 834.7 560.676C834.484 560.892 834.196 561 833.836 561H831.298C830.938 561 830.632 560.892 830.38 560.676C830.164 560.424 830.056 560.118 830.056 559.758V544.638C830.056 541.83 829.444 539.814 828.22 538.59C827.032 537.366 825.52 536.754 823.684 536.754C821.992 536.754 820.534 537.384 819.31 538.644C818.086 539.868 817.474 541.848 817.474 544.584V559.758C817.474 560.118 817.348 560.424 817.096 560.676C816.88 560.892 816.592 561 816.232 561H813.64ZM871.619 561.54C867.911 561.54 864.941 560.406 862.709 558.138C860.513 555.834 859.307 552.702 859.091 548.742L859.037 546.906L859.091 545.124C859.343 541.236 860.567 538.14 862.763 535.836C864.995 533.532 867.929 532.38 871.565 532.38C875.561 532.38 878.657 533.658 880.853 536.214C883.049 538.734 884.147 542.154 884.147 546.474V547.392C884.147 547.752 884.021 548.058 883.769 548.31C883.553 548.526 883.265 548.634 882.905 548.634H864.221V549.12C864.329 551.46 865.031 553.458 866.327 555.114C867.659 556.734 869.405 557.544 871.565 557.544C873.221 557.544 874.571 557.22 875.615 556.572C876.695 555.888 877.487 555.186 877.991 554.466C878.315 554.034 878.549 553.782 878.693 553.71C878.873 553.602 879.179 553.548 879.611 553.548H882.257C882.581 553.548 882.851 553.638 883.067 553.818C883.283 553.998 883.391 554.25 883.391 554.574C883.391 555.366 882.887 556.32 881.879 557.436C880.907 558.552 879.521 559.524 877.721 560.352C875.957 561.144 873.923 561.54 871.619 561.54ZM879.017 544.908V544.746C879.017 542.262 878.333 540.246 876.965 538.698C875.633 537.114 873.833 536.322 871.565 536.322C869.297 536.322 867.497 537.114 866.165 538.698C864.869 540.246 864.221 542.262 864.221 544.746V544.908H879.017ZM900.323 561.54C897.803 561.54 895.679 561.144 893.951 560.352C892.259 559.524 890.981 558.588 890.117 557.544C889.289 556.5 888.875 555.636 888.875 554.952C888.875 554.592 889.001 554.322 889.253 554.142C889.541 553.926 889.829 553.818 890.117 553.818H892.547C892.907 553.818 893.231 553.998 893.519 554.358C894.383 555.366 895.319 556.158 896.327 556.734C897.335 557.31 898.685 557.598 900.377 557.598C902.249 557.598 903.761 557.238 904.913 556.518C906.101 555.762 906.695 554.736 906.695 553.44C906.695 552.576 906.443 551.874 905.939 551.334C905.471 550.758 904.643 550.272 903.455 549.876C902.303 549.444 900.575 548.976 898.271 548.472C895.139 547.788 892.907 546.798 891.575 545.502C890.279 544.206 889.631 542.532 889.631 540.48C889.631 539.112 890.027 537.816 890.819 536.592C891.647 535.332 892.835 534.324 894.383 533.568C895.967 532.776 897.857 532.38 900.053 532.38C902.357 532.38 904.319 532.758 905.939 533.514C907.559 534.27 908.765 535.17 909.557 536.214C910.385 537.222 910.799 538.068 910.799 538.752C910.799 539.076 910.673 539.346 910.421 539.562C910.205 539.778 909.935 539.886 909.611 539.886H907.343C906.911 539.886 906.551 539.706 906.263 539.346C905.687 538.662 905.183 538.14 904.751 537.78C904.355 537.384 903.761 537.042 902.969 536.754C902.213 536.466 901.241 536.322 900.053 536.322C898.325 536.322 896.993 536.7 896.057 537.456C895.121 538.176 894.653 539.13 894.653 540.318C894.653 541.074 894.851 541.722 895.247 542.262C895.643 542.766 896.399 543.234 897.515 543.666C898.667 544.098 900.323 544.548 902.483 545.016C905.903 545.736 908.315 546.78 909.719 548.148C911.159 549.48 911.879 551.19 911.879 553.278C911.879 554.826 911.429 556.23 910.529 557.49C909.629 558.75 908.297 559.74 906.533 560.46C904.805 561.18 902.735 561.54 900.323 561.54ZM927.851 561.54C925.331 561.54 923.207 561.144 921.479 560.352C919.787 559.524 918.509 558.588 917.645 557.544C916.817 556.5 916.403 555.636 916.403 554.952C916.403 554.592 916.529 554.322 916.781 554.142C917.069 553.926 917.357 553.818 917.645 553.818H920.075C920.435 553.818 920.759 553.998 921.047 554.358C921.911 555.366 922.847 556.158 923.855 556.734C924.863 557.31 926.213 557.598 927.905 557.598C929.777 557.598 931.289 557.238 932.441 556.518C933.629 555.762 934.223 554.736 934.223 553.44C934.223 552.576 933.971 551.874 933.467 551.334C932.999 550.758 932.171 550.272 930.983 549.876C929.831 549.444 928.103 548.976 925.799 548.472C922.667 547.788 920.435 546.798 919.103 545.502C917.807 544.206 917.159 542.532 917.159 540.48C917.159 539.112 917.555 537.816 918.347 536.592C919.175 535.332 920.363 534.324 921.911 533.568C923.495 532.776 925.385 532.38 927.581 532.38C929.885 532.38 931.847 532.758 933.467 533.514C935.087 534.27 936.293 535.17 937.085 536.214C937.913 537.222 938.327 538.068 938.327 538.752C938.327 539.076 938.201 539.346 937.949 539.562C937.733 539.778 937.463 539.886 937.139 539.886H934.871C934.439 539.886 934.079 539.706 933.791 539.346C933.215 538.662 932.711 538.14 932.279 537.78C931.883 537.384 931.289 537.042 930.497 536.754C929.741 536.466 928.769 536.322 927.581 536.322C925.853 536.322 924.521 536.7 923.585 537.456C922.649 538.176 922.181 539.13 922.181 540.318C922.181 541.074 922.379 541.722 922.775 542.262C923.171 542.766 923.927 543.234 925.043 543.666C926.195 544.098 927.851 544.548 930.011 545.016C933.431 545.736 935.843 546.78 937.247 548.148C938.687 549.48 939.407 551.19 939.407 553.278C939.407 554.826 938.957 556.23 938.057 557.49C937.157 558.75 935.825 559.74 934.061 560.46C932.333 561.18 930.263 561.54 927.851 561.54ZM953.488 561.54C951.724 561.54 950.086 561.18 948.574 560.46C947.062 559.74 945.856 558.768 944.956 557.544C944.092 556.284 943.66 554.898 943.66 553.386C943.66 551.01 944.632 549.066 946.576 547.554C948.556 546.006 951.22 544.998 954.568 544.53L962.614 543.396V541.83C962.614 538.158 960.508 536.322 956.296 536.322C954.712 536.322 953.416 536.664 952.408 537.348C951.4 537.996 950.644 538.77 950.14 539.67C950.032 539.994 949.888 540.228 949.708 540.372C949.564 540.516 949.348 540.588 949.06 540.588H946.738C946.414 540.588 946.126 540.48 945.874 540.264C945.658 540.012 945.55 539.724 945.55 539.4C945.586 538.536 945.982 537.564 946.738 536.484C947.53 535.368 948.736 534.414 950.356 533.622C951.976 532.794 953.974 532.38 956.35 532.38C960.382 532.38 963.28 533.334 965.044 535.242C966.808 537.114 967.69 539.454 967.69 542.262V559.758C967.69 560.118 967.564 560.424 967.312 560.676C967.096 560.892 966.808 561 966.448 561H963.964C963.604 561 963.298 560.892 963.046 560.676C962.83 560.424 962.722 560.118 962.722 559.758V557.436C961.93 558.588 960.778 559.56 959.266 560.352C957.754 561.144 955.828 561.54 953.488 561.54ZM954.622 557.49C956.962 557.49 958.87 556.734 960.346 555.222C961.858 553.674 962.614 551.46 962.614 548.58V547.068L956.35 547.986C953.794 548.346 951.868 548.958 950.572 549.822C949.276 550.65 948.628 551.712 948.628 553.008C948.628 554.448 949.222 555.564 950.41 556.356C951.598 557.112 953.002 557.49 954.622 557.49ZM986.955 572.88C984.003 572.88 981.627 572.376 979.827 571.368C978.027 570.396 976.749 569.28 975.993 568.02C975.237 566.76 974.823 565.626 974.751 564.618C974.715 564.258 974.823 563.952 975.075 563.7C975.363 563.448 975.669 563.322 975.993 563.322H978.585C978.909 563.322 979.179 563.394 979.395 563.538C979.611 563.718 979.791 564.024 979.935 564.456C980.367 565.608 981.069 566.598 982.041 567.426C983.049 568.29 984.597 568.722 986.685 568.722C989.349 568.722 991.311 568.146 992.571 566.994C993.831 565.878 994.461 563.88 994.461 561V557.328C993.525 558.516 992.337 559.47 990.897 560.19C989.457 560.874 987.747 561.216 985.767 561.216C981.951 561.216 979.089 560.01 977.181 557.598C975.309 555.15 974.319 552.054 974.211 548.31L974.157 546.798L974.211 545.34C974.319 541.632 975.327 538.554 977.235 536.106C979.143 533.622 981.987 532.38 985.767 532.38C989.547 532.38 992.499 533.766 994.623 536.538V534.216C994.623 533.856 994.731 533.55 994.947 533.298C995.199 533.046 995.505 532.92 995.865 532.92H998.349C998.709 532.92 999.015 533.046 999.267 533.298C999.519 533.55 999.645 533.856 999.645 534.216V560.406C999.645 568.722 995.415 572.88 986.955 572.88ZM986.847 556.896C989.295 556.896 991.149 556.086 992.409 554.466C993.669 552.846 994.353 550.92 994.461 548.688C994.497 548.364 994.515 547.734 994.515 546.798C994.515 545.898 994.497 545.286 994.461 544.962C994.353 542.73 993.669 540.804 992.409 539.184C991.185 537.564 989.331 536.754 986.847 536.754C984.291 536.754 982.437 537.546 981.285 539.13C980.133 540.714 979.503 542.802 979.395 545.394L979.341 546.798L979.395 548.256C979.503 550.812 980.133 552.9 981.285 554.52C982.437 556.104 984.291 556.896 986.847 556.896ZM1018.91 561.54C1015.2 561.54 1012.23 560.406 1010 558.138C1007.8 555.834 1006.59 552.702 1006.38 548.742L1006.32 546.906L1006.38 545.124C1006.63 541.236 1007.85 538.14 1010.05 535.836C1012.28 533.532 1015.22 532.38 1018.85 532.38C1022.85 532.38 1025.94 533.658 1028.14 536.214C1030.34 538.734 1031.43 542.154 1031.43 546.474V547.392C1031.43 547.752 1031.31 548.058 1031.06 548.31C1030.84 548.526 1030.55 548.634 1030.19 548.634H1011.51V549.12C1011.62 551.46 1012.32 553.458 1013.61 555.114C1014.95 556.734 1016.69 557.544 1018.85 557.544C1020.51 557.544 1021.86 557.22 1022.9 556.572C1023.98 555.888 1024.77 555.186 1025.28 554.466C1025.6 554.034 1025.84 553.782 1025.98 553.71C1026.16 553.602 1026.47 553.548 1026.9 553.548H1029.54C1029.87 553.548 1030.14 553.638 1030.35 553.818C1030.57 553.998 1030.68 554.25 1030.68 554.574C1030.68 555.366 1030.17 556.32 1029.17 557.436C1028.19 558.552 1026.81 559.524 1025.01 560.352C1023.24 561.144 1021.21 561.54 1018.91 561.54ZM1026.3 544.908V544.746C1026.3 542.262 1025.62 540.246 1024.25 538.698C1022.92 537.114 1021.12 536.322 1018.85 536.322C1016.58 536.322 1014.78 537.114 1013.45 538.698C1012.16 540.246 1011.51 542.262 1011.51 544.746V544.908H1026.3ZM1039.24 552.036C1038.88 552.036 1038.57 551.928 1038.32 551.712C1038.11 551.46 1038 551.154 1038 550.794V524.442C1038 524.082 1038.11 523.794 1038.32 523.578C1038.57 523.326 1038.88 523.2 1039.24 523.2H1041.78C1042.14 523.2 1042.43 523.326 1042.64 523.578C1042.89 523.794 1043.02 524.082 1043.02 524.442V550.794C1043.02 551.154 1042.89 551.46 1042.64 551.712C1042.43 551.928 1042.14 552.036 1041.78 552.036H1039.24ZM1038.75 561C1038.39 561 1038.09 560.892 1037.84 560.676C1037.62 560.424 1037.51 560.118 1037.51 559.758V556.356C1037.51 555.996 1037.62 555.69 1037.84 555.438C1038.09 555.186 1038.39 555.06 1038.75 555.06H1042.21C1042.57 555.06 1042.86 555.186 1043.07 555.438C1043.33 555.69 1043.45 555.996 1043.45 556.356V559.758C1043.45 560.118 1043.33 560.424 1043.07 560.676C1042.86 560.892 1042.57 561 1042.21 561H1038.75ZM343.07 631C342.134 631 341.576 630.514 341.396 629.542L334.43 594.874C334.394 594.694 334.376 594.496 334.376 594.28C334.376 593.992 334.484 593.74 334.7 593.524C334.916 593.308 335.168 593.2 335.456 593.2H338.264C339.02 593.2 339.452 593.506 339.56 594.118L345.068 621.982L350.9 602.866C351.224 602.002 351.8 601.57 352.628 601.57H354.626C355.094 601.57 355.454 601.696 355.706 601.948C355.994 602.2 356.192 602.506 356.3 602.866L362.186 621.982L367.64 594.118C367.748 593.506 368.198 593.2 368.99 593.2H371.798C372.086 593.2 372.338 593.308 372.554 593.524C372.77 593.74 372.878 593.992 372.878 594.28L372.824 594.874L365.858 629.542C365.642 630.514 365.084 631 364.184 631H362.078C361.142 631 360.548 630.55 360.296 629.65L353.6 609.076L346.958 629.65C346.67 630.55 346.076 631 345.176 631H343.07ZM389.31 631.54C385.602 631.54 382.632 630.406 380.4 628.138C378.204 625.834 376.998 622.702 376.782 618.742L376.728 616.906L376.782 615.124C377.034 611.236 378.258 608.14 380.454 605.836C382.686 603.532 385.62 602.38 389.256 602.38C393.252 602.38 396.348 603.658 398.544 606.214C400.74 608.734 401.838 612.154 401.838 616.474V617.392C401.838 617.752 401.712 618.058 401.46 618.31C401.244 618.526 400.956 618.634 400.596 618.634H381.912V619.12C382.02 621.46 382.722 623.458 384.018 625.114C385.35 626.734 387.096 627.544 389.256 627.544C390.912 627.544 392.262 627.22 393.306 626.572C394.386 625.888 395.178 625.186 395.682 624.466C396.006 624.034 396.24 623.782 396.384 623.71C396.564 623.602 396.87 623.548 397.302 623.548H399.948C400.272 623.548 400.542 623.638 400.758 623.818C400.974 623.998 401.082 624.25 401.082 624.574C401.082 625.366 400.578 626.32 399.57 627.436C398.598 628.552 397.212 629.524 395.412 630.352C393.648 631.144 391.614 631.54 389.31 631.54ZM396.708 614.908V614.746C396.708 612.262 396.024 610.246 394.656 608.698C393.324 607.114 391.524 606.322 389.256 606.322C386.988 606.322 385.188 607.114 383.856 608.698C382.56 610.246 381.912 612.262 381.912 614.746V614.908H396.708ZM427.718 631C427.25 631 426.89 630.892 426.638 630.676C426.386 630.46 426.17 630.118 425.99 629.65L418.322 604.594L418.214 604.054C418.214 603.73 418.322 603.46 418.538 603.244C418.79 603.028 419.06 602.92 419.348 602.92H421.724C422.084 602.92 422.372 603.028 422.588 603.244C422.84 603.424 423.002 603.622 423.074 603.838L429.068 624.196L435.494 604.054C435.566 603.766 435.728 603.514 435.98 603.298C436.232 603.046 436.574 602.92 437.006 602.92H438.842C439.274 602.92 439.616 603.046 439.868 603.298C440.12 603.514 440.282 603.766 440.354 604.054L446.78 624.196L452.774 603.838C452.81 603.658 452.936 603.46 453.152 603.244C453.404 603.028 453.71 602.92 454.07 602.92H456.5C456.788 602.92 457.04 603.028 457.256 603.244C457.472 603.46 457.58 603.73 457.58 604.054L457.472 604.594L449.858 629.65C449.678 630.118 449.462 630.46 449.21 630.676C448.958 630.892 448.58 631 448.076 631H445.97C444.998 631 444.404 630.55 444.188 629.65L437.924 610.318L431.66 629.65C431.372 630.55 430.76 631 429.824 631H427.718ZM464.37 597.682C464.01 597.682 463.704 597.574 463.452 597.358C463.236 597.106 463.128 596.8 463.128 596.44V593.524C463.128 593.164 463.236 592.858 463.452 592.606C463.704 592.354 464.01 592.228 464.37 592.228H467.772C468.132 592.228 468.438 592.354 468.69 592.606C468.942 592.858 469.068 593.164 469.068 593.524V596.44C469.068 596.8 468.942 597.106 468.69 597.358C468.438 597.574 468.132 597.682 467.772 597.682H464.37ZM464.802 631C464.442 631 464.136 630.892 463.884 630.676C463.668 630.424 463.56 630.118 463.56 629.758V604.162C463.56 603.802 463.668 603.514 463.884 603.298C464.136 603.046 464.442 602.92 464.802 602.92H467.394C467.754 602.92 468.042 603.046 468.258 603.298C468.51 603.514 468.636 603.802 468.636 604.162V629.758C468.636 630.118 468.51 630.424 468.258 630.676C468.042 630.892 467.754 631 467.394 631H464.802ZM477.935 631C477.575 631 477.269 630.892 477.017 630.676C476.801 630.424 476.693 630.118 476.693 629.758V593.902C476.693 593.542 476.801 593.254 477.017 593.038C477.269 592.786 477.575 592.66 477.935 592.66H480.473C480.833 592.66 481.121 592.786 481.337 593.038C481.589 593.254 481.715 593.542 481.715 593.902V629.758C481.715 630.118 481.589 630.424 481.337 630.676C481.121 630.892 480.833 631 480.473 631H477.935ZM491.065 631C490.705 631 490.399 630.892 490.147 630.676C489.931 630.424 489.823 630.118 489.823 629.758V593.902C489.823 593.542 489.931 593.254 490.147 593.038C490.399 592.786 490.705 592.66 491.065 592.66H493.603C493.963 592.66 494.251 592.786 494.467 593.038C494.719 593.254 494.845 593.542 494.845 593.902V629.758C494.845 630.118 494.719 630.424 494.467 630.676C494.251 630.892 493.963 631 493.603 631H491.065ZM527.477 631.54C523.625 631.54 520.601 630.46 518.405 628.3C516.245 626.104 515.093 623.044 514.949 619.12L514.895 616.96L514.949 614.8C515.093 610.876 516.245 607.834 518.405 605.674C520.601 603.478 523.625 602.38 527.477 602.38C530.069 602.38 532.265 602.848 534.065 603.784C535.865 604.72 537.197 605.872 538.061 607.24C538.961 608.608 539.447 609.976 539.519 611.344C539.555 611.704 539.447 611.992 539.195 612.208C538.943 612.424 538.637 612.532 538.277 612.532H535.685C535.325 612.532 535.055 612.46 534.875 612.316C534.695 612.172 534.515 611.884 534.335 611.452C533.723 609.724 532.859 608.5 531.743 607.78C530.627 607.024 529.223 606.646 527.531 606.646C525.299 606.646 523.517 607.348 522.185 608.752C520.889 610.12 520.187 612.226 520.079 615.07L520.025 617.014L520.079 618.85C520.187 621.73 520.889 623.854 522.185 625.222C523.481 626.59 525.263 627.274 527.531 627.274C529.223 627.274 530.627 626.914 531.743 626.194C532.859 625.438 533.723 624.196 534.335 622.468C534.515 622.036 534.695 621.748 534.875 621.604C535.055 621.424 535.325 621.334 535.685 621.334H538.277C538.637 621.334 538.943 621.46 539.195 621.712C539.447 621.928 539.555 622.216 539.519 622.576C539.447 623.908 538.961 625.276 538.061 626.68C537.197 628.048 535.865 629.2 534.065 630.136C532.301 631.072 530.105 631.54 527.477 631.54ZM557.434 631.54C553.474 631.54 550.396 630.424 548.2 628.192C546.04 625.96 544.888 622.99 544.744 619.282L544.69 616.96L544.744 614.638C544.888 610.966 546.058 608.014 548.254 605.782C550.45 603.514 553.51 602.38 557.434 602.38C561.358 602.38 564.418 603.514 566.614 605.782C568.81 608.014 569.98 610.966 570.124 614.638C570.16 615.034 570.178 615.808 570.178 616.96C570.178 618.112 570.16 618.886 570.124 619.282C569.98 622.99 568.81 625.96 566.614 628.192C564.454 630.424 561.394 631.54 557.434 631.54ZM557.434 627.382C559.702 627.382 561.484 626.662 562.78 625.222C564.112 623.782 564.832 621.712 564.94 619.012C564.976 618.652 564.994 617.968 564.994 616.96C564.994 615.952 564.976 615.268 564.94 614.908C564.832 612.208 564.112 610.138 562.78 608.698C561.484 607.258 559.702 606.538 557.434 606.538C555.166 606.538 553.366 607.258 552.034 608.698C550.702 610.138 550 612.208 549.928 614.908L549.874 616.96L549.928 619.012C550 621.712 550.702 623.782 552.034 625.222C553.366 626.662 555.166 627.382 557.434 627.382ZM578.181 631C577.821 631 577.515 630.892 577.263 630.676C577.047 630.424 576.939 630.118 576.939 629.758V604.162C576.939 603.802 577.047 603.514 577.263 603.298C577.515 603.046 577.821 602.92 578.181 602.92H580.719C581.079 602.92 581.367 603.046 581.583 603.298C581.835 603.514 581.961 603.802 581.961 604.162V606.538C583.005 605.206 584.229 604.18 585.633 603.46C587.073 602.74 588.855 602.38 590.979 602.38C594.435 602.38 597.117 603.496 599.025 605.728C600.969 607.924 601.941 610.858 601.941 614.53V629.758C601.941 630.118 601.815 630.424 601.563 630.676C601.347 630.892 601.059 631 600.699 631H597.999C597.639 631 597.333 630.892 597.081 630.676C596.865 630.424 596.757 630.118 596.757 629.758V614.8C596.757 612.244 596.127 610.264 594.867 608.86C593.643 607.456 591.861 606.754 589.521 606.754C587.253 606.754 585.453 607.474 584.121 608.914C582.789 610.318 582.123 612.28 582.123 614.8V629.758C582.123 630.118 581.997 630.424 581.745 630.676C581.529 630.892 581.241 631 580.881 631H578.181ZM620.28 631C614.592 631 611.748 627.832 611.748 621.496V607.24H607.536C607.176 607.24 606.87 607.132 606.618 606.916C606.402 606.664 606.294 606.358 606.294 605.998V604.162C606.294 603.802 606.402 603.514 606.618 603.298C606.87 603.046 607.176 602.92 607.536 602.92H611.748V593.902C611.748 593.542 611.856 593.254 612.072 593.038C612.324 592.786 612.63 592.66 612.99 592.66H615.528C615.888 592.66 616.176 592.786 616.392 593.038C616.644 593.254 616.77 593.542 616.77 593.902V602.92H623.466C623.826 602.92 624.114 603.046 624.33 603.298C624.582 603.514 624.708 603.802 624.708 604.162V605.998C624.708 606.358 624.582 606.664 624.33 606.916C624.114 607.132 623.826 607.24 623.466 607.24H616.77V621.118C616.77 622.918 617.076 624.286 617.688 625.222C618.3 626.122 619.308 626.572 620.712 626.572H624.006C624.366 626.572 624.654 626.698 624.87 626.95C625.122 627.166 625.248 627.454 625.248 627.814V629.758C625.248 630.118 625.122 630.424 624.87 630.676C624.654 630.892 624.366 631 624.006 631H620.28ZM638.242 631.54C636.478 631.54 634.84 631.18 633.328 630.46C631.816 629.74 630.61 628.768 629.71 627.544C628.846 626.284 628.414 624.898 628.414 623.386C628.414 621.01 629.386 619.066 631.33 617.554C633.31 616.006 635.974 614.998 639.322 614.53L647.368 613.396V611.83C647.368 608.158 645.262 606.322 641.05 606.322C639.466 606.322 638.17 606.664 637.162 607.348C636.154 607.996 635.398 608.77 634.894 609.67C634.786 609.994 634.642 610.228 634.462 610.372C634.318 610.516 634.102 610.588 633.814 610.588H631.492C631.168 610.588 630.88 610.48 630.628 610.264C630.412 610.012 630.304 609.724 630.304 609.4C630.34 608.536 630.736 607.564 631.492 606.484C632.284 605.368 633.49 604.414 635.11 603.622C636.73 602.794 638.728 602.38 641.104 602.38C645.136 602.38 648.034 603.334 649.798 605.242C651.562 607.114 652.444 609.454 652.444 612.262V629.758C652.444 630.118 652.318 630.424 652.066 630.676C651.85 630.892 651.562 631 651.202 631H648.718C648.358 631 648.052 630.892 647.8 630.676C647.584 630.424 647.476 630.118 647.476 629.758V627.436C646.684 628.588 645.532 629.56 644.02 630.352C642.508 631.144 640.582 631.54 638.242 631.54ZM639.376 627.49C641.716 627.49 643.624 626.734 645.1 625.222C646.612 623.674 647.368 621.46 647.368 618.58V617.068L641.104 617.986C638.548 618.346 636.622 618.958 635.326 619.822C634.03 620.65 633.382 621.712 633.382 623.008C633.382 624.448 633.976 625.564 635.164 626.356C636.352 627.112 637.756 627.49 639.376 627.49ZM671.547 631.54C667.695 631.54 664.671 630.46 662.475 628.3C660.315 626.104 659.163 623.044 659.019 619.12L658.965 616.96L659.019 614.8C659.163 610.876 660.315 607.834 662.475 605.674C664.671 603.478 667.695 602.38 671.547 602.38C674.139 602.38 676.335 602.848 678.135 603.784C679.935 604.72 681.267 605.872 682.131 607.24C683.031 608.608 683.517 609.976 683.589 611.344C683.625 611.704 683.517 611.992 683.265 612.208C683.013 612.424 682.707 612.532 682.347 612.532H679.755C679.395 612.532 679.125 612.46 678.945 612.316C678.765 612.172 678.585 611.884 678.405 611.452C677.793 609.724 676.929 608.5 675.813 607.78C674.697 607.024 673.293 606.646 671.601 606.646C669.369 606.646 667.587 607.348 666.255 608.752C664.959 610.12 664.257 612.226 664.149 615.07L664.095 617.014L664.149 618.85C664.257 621.73 664.959 623.854 666.255 625.222C667.551 626.59 669.333 627.274 671.601 627.274C673.293 627.274 674.697 626.914 675.813 626.194C676.929 625.438 677.793 624.196 678.405 622.468C678.585 622.036 678.765 621.748 678.945 621.604C679.125 621.424 679.395 621.334 679.755 621.334H682.347C682.707 621.334 683.013 621.46 683.265 621.712C683.517 621.928 683.625 622.216 683.589 622.576C683.517 623.908 683.031 625.276 682.131 626.68C681.267 628.048 679.935 629.2 678.135 630.136C676.371 631.072 674.175 631.54 671.547 631.54ZM700.964 631C695.276 631 692.432 627.832 692.432 621.496V607.24H688.22C687.86 607.24 687.554 607.132 687.302 606.916C687.086 606.664 686.978 606.358 686.978 605.998V604.162C686.978 603.802 687.086 603.514 687.302 603.298C687.554 603.046 687.86 602.92 688.22 602.92H692.432V593.902C692.432 593.542 692.54 593.254 692.756 593.038C693.008 592.786 693.314 592.66 693.674 592.66H696.212C696.572 592.66 696.86 592.786 697.076 593.038C697.328 593.254 697.454 593.542 697.454 593.902V602.92H704.15C704.51 602.92 704.798 603.046 705.014 603.298C705.266 603.514 705.392 603.802 705.392 604.162V605.998C705.392 606.358 705.266 606.664 705.014 606.916C704.798 607.132 704.51 607.24 704.15 607.24H697.454V621.118C697.454 622.918 697.76 624.286 698.372 625.222C698.984 626.122 699.992 626.572 701.396 626.572H704.69C705.05 626.572 705.338 626.698 705.554 626.95C705.806 627.166 705.932 627.454 705.932 627.814V629.758C705.932 630.118 705.806 630.424 705.554 630.676C705.338 630.892 705.05 631 704.69 631H700.964ZM727.769 641.26C727.481 641.26 727.229 641.152 727.013 640.936C726.797 640.72 726.689 640.468 726.689 640.18C726.689 639.928 726.779 639.604 726.959 639.208L731.117 629.326L720.803 604.972C720.623 604.504 720.533 604.198 720.533 604.054C720.533 603.73 720.641 603.46 720.857 603.244C721.073 603.028 721.343 602.92 721.667 602.92H724.313C724.889 602.92 725.321 603.226 725.609 603.838L733.817 623.494L742.241 603.838C742.529 603.226 742.979 602.92 743.591 602.92H746.129C746.453 602.92 746.723 603.028 746.939 603.244C747.155 603.46 747.263 603.712 747.263 604C747.263 604.108 747.173 604.432 746.993 604.972L731.657 640.342C731.369 640.954 730.919 641.26 730.307 641.26H727.769ZM763.203 631.54C759.243 631.54 756.165 630.424 753.969 628.192C751.809 625.96 750.657 622.99 750.513 619.282L750.459 616.96L750.513 614.638C750.657 610.966 751.827 608.014 754.023 605.782C756.219 603.514 759.279 602.38 763.203 602.38C767.127 602.38 770.187 603.514 772.383 605.782C774.579 608.014 775.749 610.966 775.893 614.638C775.929 615.034 775.947 615.808 775.947 616.96C775.947 618.112 775.929 618.886 775.893 619.282C775.749 622.99 774.579 625.96 772.383 628.192C770.223 630.424 767.163 631.54 763.203 631.54ZM763.203 627.382C765.471 627.382 767.253 626.662 768.549 625.222C769.881 623.782 770.601 621.712 770.709 619.012C770.745 618.652 770.763 617.968 770.763 616.96C770.763 615.952 770.745 615.268 770.709 614.908C770.601 612.208 769.881 610.138 768.549 608.698C767.253 607.258 765.471 606.538 763.203 606.538C760.935 606.538 759.135 607.258 757.803 608.698C756.471 610.138 755.769 612.208 755.697 614.908L755.643 616.96L755.697 619.012C755.769 621.712 756.471 623.782 757.803 625.222C759.135 626.662 760.935 627.382 763.203 627.382ZM793.185 631.54C789.765 631.54 787.119 630.442 785.247 628.246C783.375 626.014 782.439 623.062 782.439 619.39V604.162C782.439 603.802 782.547 603.514 782.763 603.298C783.015 603.046 783.321 602.92 783.681 602.92H786.381C786.741 602.92 787.029 603.046 787.245 603.298C787.497 603.514 787.623 603.802 787.623 604.162V619.12C787.623 624.484 789.963 627.166 794.643 627.166C796.911 627.166 798.711 626.464 800.043 625.06C801.375 623.62 802.041 621.64 802.041 619.12V604.162C802.041 603.802 802.149 603.514 802.365 603.298C802.617 603.046 802.923 602.92 803.283 602.92H805.983C806.343 602.92 806.631 603.046 806.847 603.298C807.063 603.514 807.171 603.802 807.171 604.162V629.758C807.171 630.118 807.063 630.424 806.847 630.676C806.631 630.892 806.343 631 805.983 631H803.445C803.085 631 802.779 630.892 802.527 630.676C802.311 630.424 802.203 630.118 802.203 629.758V627.382C801.195 628.75 799.971 629.794 798.531 630.514C797.091 631.198 795.309 631.54 793.185 631.54ZM838.15 631.54C835.63 631.54 833.506 631.144 831.778 630.352C830.086 629.524 828.808 628.588 827.944 627.544C827.116 626.5 826.702 625.636 826.702 624.952C826.702 624.592 826.828 624.322 827.08 624.142C827.368 623.926 827.656 623.818 827.944 623.818H830.374C830.734 623.818 831.058 623.998 831.346 624.358C832.21 625.366 833.146 626.158 834.154 626.734C835.162 627.31 836.512 627.598 838.204 627.598C840.076 627.598 841.588 627.238 842.74 626.518C843.928 625.762 844.522 624.736 844.522 623.44C844.522 622.576 844.27 621.874 843.766 621.334C843.298 620.758 842.47 620.272 841.282 619.876C840.13 619.444 838.402 618.976 836.098 618.472C832.966 617.788 830.734 616.798 829.402 615.502C828.106 614.206 827.458 612.532 827.458 610.48C827.458 609.112 827.854 607.816 828.646 606.592C829.474 605.332 830.662 604.324 832.21 603.568C833.794 602.776 835.684 602.38 837.88 602.38C840.184 602.38 842.146 602.758 843.766 603.514C845.386 604.27 846.592 605.17 847.384 606.214C848.212 607.222 848.626 608.068 848.626 608.752C848.626 609.076 848.5 609.346 848.248 609.562C848.032 609.778 847.762 609.886 847.438 609.886H845.17C844.738 609.886 844.378 609.706 844.09 609.346C843.514 608.662 843.01 608.14 842.578 607.78C842.182 607.384 841.588 607.042 840.796 606.754C840.04 606.466 839.068 606.322 837.88 606.322C836.152 606.322 834.82 606.7 833.884 607.456C832.948 608.176 832.48 609.13 832.48 610.318C832.48 611.074 832.678 611.722 833.074 612.262C833.47 612.766 834.226 613.234 835.342 613.666C836.494 614.098 838.15 614.548 840.31 615.016C843.73 615.736 846.142 616.78 847.546 618.148C848.986 619.48 849.706 621.19 849.706 623.278C849.706 624.826 849.256 626.23 848.356 627.49C847.456 628.75 846.124 629.74 844.36 630.46C842.632 631.18 840.562 631.54 838.15 631.54ZM867.459 631.54C863.499 631.54 860.421 630.424 858.225 628.192C856.065 625.96 854.913 622.99 854.769 619.282L854.715 616.96L854.769 614.638C854.913 610.966 856.083 608.014 858.279 605.782C860.475 603.514 863.535 602.38 867.459 602.38C871.383 602.38 874.443 603.514 876.639 605.782C878.835 608.014 880.005 610.966 880.149 614.638C880.185 615.034 880.203 615.808 880.203 616.96C880.203 618.112 880.185 618.886 880.149 619.282C880.005 622.99 878.835 625.96 876.639 628.192C874.479 630.424 871.419 631.54 867.459 631.54ZM867.459 627.382C869.727 627.382 871.509 626.662 872.805 625.222C874.137 623.782 874.857 621.712 874.965 619.012C875.001 618.652 875.019 617.968 875.019 616.96C875.019 615.952 875.001 615.268 874.965 614.908C874.857 612.208 874.137 610.138 872.805 608.698C871.509 607.258 869.727 606.538 867.459 606.538C865.191 606.538 863.391 607.258 862.059 608.698C860.727 610.138 860.025 612.208 859.953 614.908L859.899 616.96L859.953 619.012C860.025 621.712 860.727 623.782 862.059 625.222C863.391 626.662 865.191 627.382 867.459 627.382ZM898.467 631.54C894.507 631.54 891.429 630.424 889.233 628.192C887.073 625.96 885.921 622.99 885.777 619.282L885.723 616.96L885.777 614.638C885.921 610.966 887.091 608.014 889.287 605.782C891.483 603.514 894.543 602.38 898.467 602.38C902.391 602.38 905.451 603.514 907.647 605.782C909.843 608.014 911.013 610.966 911.157 614.638C911.193 615.034 911.211 615.808 911.211 616.96C911.211 618.112 911.193 618.886 911.157 619.282C911.013 622.99 909.843 625.96 907.647 628.192C905.487 630.424 902.427 631.54 898.467 631.54ZM898.467 627.382C900.735 627.382 902.517 626.662 903.813 625.222C905.145 623.782 905.865 621.712 905.973 619.012C906.009 618.652 906.027 617.968 906.027 616.96C906.027 615.952 906.009 615.268 905.973 614.908C905.865 612.208 905.145 610.138 903.813 608.698C902.517 607.258 900.735 606.538 898.467 606.538C896.199 606.538 894.399 607.258 893.067 608.698C891.735 610.138 891.033 612.208 890.961 614.908L890.907 616.96L890.961 619.012C891.033 621.712 891.735 623.782 893.067 625.222C894.399 626.662 896.199 627.382 898.467 627.382ZM919.215 631C918.855 631 918.549 630.892 918.297 630.676C918.081 630.424 917.973 630.118 917.973 629.758V604.162C917.973 603.802 918.081 603.514 918.297 603.298C918.549 603.046 918.855 602.92 919.215 602.92H921.753C922.113 602.92 922.401 603.046 922.617 603.298C922.869 603.514 922.995 603.802 922.995 604.162V606.538C924.039 605.206 925.263 604.18 926.667 603.46C928.107 602.74 929.889 602.38 932.013 602.38C935.469 602.38 938.151 603.496 940.059 605.728C942.003 607.924 942.975 610.858 942.975 614.53V629.758C942.975 630.118 942.849 630.424 942.597 630.676C942.381 630.892 942.093 631 941.733 631H939.033C938.673 631 938.367 630.892 938.115 630.676C937.899 630.424 937.791 630.118 937.791 629.758V614.8C937.791 612.244 937.161 610.264 935.901 608.86C934.677 607.456 932.895 606.754 930.555 606.754C928.287 606.754 926.487 607.474 925.155 608.914C923.823 610.318 923.157 612.28 923.157 614.8V629.758C923.157 630.118 923.031 630.424 922.779 630.676C922.563 630.892 922.275 631 921.915 631H919.215ZM951.585 631C951.225 631 950.919 630.892 950.667 630.676C950.451 630.424 950.343 630.118 950.343 629.758V625.87C950.343 625.51 950.451 625.222 950.667 625.006C950.919 624.754 951.225 624.628 951.585 624.628H955.473C955.833 624.628 956.139 624.754 956.391 625.006C956.643 625.222 956.769 625.51 956.769 625.87V629.758C956.769 630.118 956.643 630.424 956.391 630.676C956.139 630.892 955.833 631 955.473 631H951.585Z" fill="#120C04"/>
<circle cx="680" cy="340" r="110" fill="url(#paint0_linear)"/>
<path d="M620 341.139L667.821 381.695C668.669 382.414 669.94 382.304 670.651 381.45L741 297" stroke="white" stroke-width="20"/>
<defs>
<filter id="filter0_d" x="0" y="0" width="1360" height="964" filterUnits="userSpaceOnUse" color-interpolation-filters="sRGB">
<feFlood flood-opacity="0" result="BackgroundImageFix"/>
<feColorMatrix in="SourceAlpha" type="matrix" values="0 0 0 0 0 0 0 0 0 0 0 0 0 0 0 0 0 0 127 0"/>
<feOffset dy="10"/>
<feGaussianBlur stdDeviation="20"/>
<feColorMatrix type="matrix" values="0 0 0 0 0.0666667 0 0 0 0 0.0745098 0 0 0 0 0.137255 0 0 0 0.08 0"/>
<feBlend mode="normal" in2="BackgroundImageFix" result="effect1_dropShadow"/>
<feBlend mode="normal" in="SourceGraphic" in2="effect1_dropShadow" result="shape"/>
</filter>
<linearGradient id="paint0_linear" x1="563" y1="333" x2="790" y2="333" gradientUnits="userSpaceOnUse">
<stop stop-color="#F49422"/>
<stop offset="1" stop-color="#ED8100"/>
</linearGradient>
</defs>
</svg>
